<?xml version="1.0" encoding="UTF-8" standalone="no"?>
<!DOCTYPE svg PUBLIC "-//W3C//DTD SVG 1.1//EN" "http://www.w3.org/Graphics/SVG/1.1/DTD/svg11.dtd">
<svg width="100%" height="100%" viewBox="0 0 758 293" version="1.1" xmlns="http://www.w3.org/2000/svg" xmlns:xlink="http://www.w3.org/1999/xlink" xml:space="preserve" xmlns:serif="http://www.serif.com/" style="fill-rule:evenodd;clip-rule:evenodd;stroke-linejoin:round;stroke-miterlimit:2;">
    <g transform="matrix(1,0,0,1,-706.611,-5943.11)">
        <g transform="matrix(7.86628,0,0,7.5708,-9862.44,4595.57)">
            <g transform="matrix(0.42792,0,0,0.444621,1188.46,-6.53756)">
                <path d="M364.62,451.527L364.62,415.027L375.82,415.027C379.32,415.027 382.112,415.877 384.195,417.577C386.278,419.277 387.32,421.56 387.32,424.427C387.32,426.427 386.745,428.143 385.595,429.577C384.445,431.01 382.953,431.877 381.12,432.177L381.12,432.277C382.487,432.443 383.703,432.935 384.77,433.752C385.837,434.568 386.67,435.618 387.27,436.902C387.87,438.185 388.17,439.593 388.17,441.127C388.17,443.227 387.687,445.06 386.72,446.627C385.753,448.193 384.387,449.402 382.62,450.252C380.853,451.102 378.77,451.527 376.37,451.527L364.62,451.527ZM370.72,430.077L375.72,430.077C377.353,430.077 378.653,429.635 379.62,428.752C380.587,427.868 381.07,426.66 381.07,425.127C381.07,423.627 380.595,422.435 379.645,421.552C378.695,420.668 377.387,420.227 375.72,420.227L370.72,420.227L370.72,430.077ZM370.72,446.327L376.02,446.327C377.853,446.327 379.295,445.835 380.345,444.852C381.395,443.868 381.92,442.527 381.92,440.827C381.92,439.127 381.395,437.752 380.345,436.702C379.295,435.652 377.853,435.127 376.02,435.127L370.72,435.127L370.72,446.327Z" style="fill-rule:nonzero;"/>
                <path d="M400.82,452.027C398.487,452.027 396.453,451.577 394.72,450.677C392.987,449.777 391.645,448.502 390.695,446.852C389.745,445.202 389.27,443.26 389.27,441.027L389.27,434.527C389.27,432.293 389.745,430.352 390.695,428.702C391.645,427.052 392.987,425.777 394.72,424.877C396.453,423.977 398.487,423.527 400.82,423.527C403.12,423.527 405.128,423.977 406.845,424.877C408.562,425.777 409.895,427.035 410.845,428.652C411.795,430.268 412.27,432.16 412.27,434.327L412.27,439.327L395.27,439.327L395.27,441.227C395.27,443.093 395.753,444.502 396.72,445.452C397.687,446.402 399.053,446.877 400.82,446.877C402.12,446.877 403.228,446.652 404.145,446.202C405.062,445.752 405.603,445.093 405.77,444.227L411.97,444.227C411.537,446.593 410.303,448.485 408.27,449.902C406.237,451.318 403.753,452.027 400.82,452.027ZM395.27,434.327L395.27,435.277L406.27,435.227L406.27,434.277C406.27,432.377 405.803,430.91 404.87,429.877C403.937,428.843 402.587,428.327 400.82,428.327C398.987,428.327 397.603,428.852 396.67,429.902C395.737,430.952 395.27,432.427 395.27,434.327Z" style="fill-rule:nonzero;"/>
                <path d="M428.52,451.527C425.953,451.527 423.912,450.785 422.395,449.302C420.878,447.818 420.12,445.81 420.12,443.277L420.12,429.677L412.52,429.677L412.52,424.027L420.12,424.027L420.12,416.277L426.42,416.277L426.42,424.027L437.37,424.027L437.37,429.677L426.42,429.677L426.42,443.127C426.42,443.927 426.645,444.585 427.095,445.102C427.545,445.618 428.17,445.877 428.97,445.877L437.12,445.877L437.12,451.527L428.52,451.527Z" style="fill-rule:nonzero;"/>
                <path d="M440.87,451.527L436.57,424.027L441.52,424.027L443.97,440.877C444.103,441.91 444.22,443.027 444.32,444.227C444.42,445.427 444.503,446.427 444.57,447.227C444.603,446.427 444.67,445.427 444.77,444.227C444.87,443.027 445.02,441.91 445.22,440.877L448.22,424.027L453.42,424.027L456.32,440.877C456.52,441.91 456.678,443.035 456.795,444.252C456.912,445.468 457.003,446.477 457.07,447.277C457.137,446.477 457.212,445.468 457.295,444.252C457.378,443.035 457.503,441.91 457.67,440.877L460.17,424.027L464.97,424.027L460.57,451.527L454.12,451.527L451.52,434.577C451.353,433.643 451.203,432.568 451.07,431.352C450.937,430.135 450.837,429.143 450.77,428.377C450.737,429.143 450.637,430.135 450.47,431.352C450.303,432.568 450.153,433.643 450.02,434.577L447.32,451.527L440.87,451.527Z" style="fill-rule:nonzero;"/>
                <path d="M475.82,452.027C473.487,452.027 471.453,451.577 469.72,450.677C467.987,449.777 466.645,448.502 465.695,446.852C464.745,445.202 464.27,443.26 464.27,441.027L464.27,434.527C464.27,432.293 464.745,430.352 465.695,428.702C466.645,427.052 467.987,425.777 469.72,424.877C471.453,423.977 473.487,423.527 475.82,423.527C478.12,423.527 480.128,423.977 481.845,424.877C483.562,425.777 484.895,427.035 485.845,428.652C486.795,430.268 487.27,432.16 487.27,434.327L487.27,439.327L470.27,439.327L470.27,441.227C470.27,443.093 470.753,444.502 471.72,445.452C472.687,446.402 474.053,446.877 475.82,446.877C477.12,446.877 478.228,446.652 479.145,446.202C480.062,445.752 480.603,445.093 480.77,444.227L486.97,444.227C486.537,446.593 485.303,448.485 483.27,449.902C481.237,451.318 478.753,452.027 475.82,452.027ZM470.27,434.327L470.27,435.277L481.27,435.227L481.27,434.277C481.27,432.377 480.803,430.91 479.87,429.877C478.937,428.843 477.587,428.327 475.82,428.327C473.987,428.327 472.603,428.852 471.67,429.902C470.737,430.952 470.27,432.427 470.27,434.327Z" style="fill-rule:nonzero;"/>
                <path d="M500.82,452.027C498.487,452.027 496.453,451.577 494.72,450.677C492.987,449.777 491.645,448.502 490.695,446.852C489.745,445.202 489.27,443.26 489.27,441.027L489.27,434.527C489.27,432.293 489.745,430.352 490.695,428.702C491.645,427.052 492.987,425.777 494.72,424.877C496.453,423.977 498.487,423.527 500.82,423.527C503.12,423.527 505.128,423.977 506.845,424.877C508.562,425.777 509.895,427.035 510.845,428.652C511.795,430.268 512.27,432.16 512.27,434.327L512.27,439.327L495.27,439.327L495.27,441.227C495.27,443.093 495.753,444.502 496.72,445.452C497.687,446.402 499.053,446.877 500.82,446.877C502.12,446.877 503.228,446.652 504.145,446.202C505.062,445.752 505.603,445.093 505.77,444.227L511.97,444.227C511.537,446.593 510.303,448.485 508.27,449.902C506.237,451.318 503.753,452.027 500.82,452.027ZM495.27,434.327L495.27,435.277L506.27,435.227L506.27,434.277C506.27,432.377 505.803,430.91 504.87,429.877C503.937,428.843 502.587,428.327 500.82,428.327C498.987,428.327 497.603,428.852 496.67,429.902C495.737,430.952 495.27,432.427 495.27,434.327Z" style="fill-rule:nonzero;"/>
                <path d="M514.62,451.527L514.62,424.027L520.72,424.027L520.72,429.177C521.053,427.443 521.87,426.068 523.17,425.052C524.47,424.035 526.12,423.527 528.12,423.527C530.82,423.527 532.978,424.427 534.595,426.227C536.212,428.027 537.02,430.443 537.02,433.477L537.02,451.527L530.77,451.527L530.77,434.227C530.77,432.527 530.328,431.218 529.445,430.302C528.562,429.385 527.37,428.927 525.87,428.927C524.303,428.927 523.078,429.393 522.195,430.327C521.312,431.26 520.87,432.593 520.87,434.327L520.87,451.527L514.62,451.527Z" style="fill-rule:nonzero;"/>
                <path d="M378.52,501.527C375.953,501.527 373.912,500.785 372.395,499.302C370.878,497.818 370.12,495.81 370.12,493.277L370.12,479.677L362.52,479.677L362.52,474.027L370.12,474.027L370.12,466.277L376.42,466.277L376.42,474.027L387.37,474.027L387.37,479.677L376.42,479.677L376.42,493.127C376.42,493.927 376.645,494.585 377.095,495.102C377.545,495.618 378.17,495.877 378.97,495.877L387.12,495.877L387.12,501.527L378.52,501.527Z" style="fill-rule:nonzero;"/>
                <path d="M389.62,501.527L389.62,465.027L395.87,465.027L395.87,474.027L395.72,479.127C396.053,477.393 396.87,476.027 398.17,475.027C399.47,474.027 401.12,473.527 403.12,473.527C405.82,473.527 407.978,474.427 409.595,476.227C411.212,478.027 412.02,480.443 412.02,483.477L412.02,501.527L405.77,501.527L405.77,484.227C405.77,482.527 405.328,481.218 404.445,480.302C403.562,479.385 402.37,478.927 400.87,478.927C399.303,478.927 398.078,479.393 397.195,480.327C396.312,481.26 395.87,482.593 395.87,484.327L395.87,501.527L389.62,501.527Z" style="fill-rule:nonzero;"/>
                <path d="M425.82,502.027C423.487,502.027 421.453,501.577 419.72,500.677C417.987,499.777 416.645,498.502 415.695,496.852C414.745,495.202 414.27,493.26 414.27,491.027L414.27,484.527C414.27,482.293 414.745,480.352 415.695,478.702C416.645,477.052 417.987,475.777 419.72,474.877C421.453,473.977 423.487,473.527 425.82,473.527C428.12,473.527 430.128,473.977 431.845,474.877C433.562,475.777 434.895,477.035 435.845,478.652C436.795,480.268 437.27,482.16 437.27,484.327L437.27,489.327L420.27,489.327L420.27,491.227C420.27,493.093 420.753,494.502 421.72,495.452C422.687,496.402 424.053,496.877 425.82,496.877C427.12,496.877 428.228,496.652 429.145,496.202C430.062,495.752 430.603,495.093 430.77,494.227L436.97,494.227C436.537,496.593 435.303,498.485 433.27,499.902C431.237,501.318 428.753,502.027 425.82,502.027ZM420.27,484.327L420.27,485.277L431.27,485.227L431.27,484.277C431.27,482.377 430.803,480.91 429.87,479.877C428.937,478.843 427.587,478.327 425.82,478.327C423.987,478.327 422.603,478.852 421.67,479.902C420.737,480.952 420.27,482.427 420.27,484.327Z" style="fill-rule:nonzero;"/>
                <path d="M480.22,501.527C477.487,501.527 475.295,500.71 473.645,499.077C471.995,497.443 471.17,495.293 471.17,492.627L471.17,470.677L462.12,470.677L462.12,465.027L477.42,465.027L477.42,492.477C477.42,493.51 477.712,494.335 478.295,494.952C478.878,495.568 479.67,495.877 480.67,495.877L488.72,495.877L488.72,501.527L480.22,501.527Z" style="fill-rule:nonzero;"/>
                <path d="M489.57,501.527L489.57,495.877L498.97,495.877L498.97,479.677L490.57,479.677L490.57,474.027L505.22,474.027L505.22,495.877L513.67,495.877L513.67,501.527L489.57,501.527ZM501.67,469.427C500.403,469.427 499.403,469.102 498.67,468.452C497.937,467.802 497.57,466.927 497.57,465.827C497.57,464.727 497.937,463.852 498.67,463.202C499.403,462.552 500.403,462.227 501.67,462.227C502.937,462.227 503.937,462.552 504.67,463.202C505.403,463.852 505.77,464.727 505.77,465.827C505.77,466.927 505.403,467.802 504.67,468.452C503.937,469.102 502.937,469.427 501.67,469.427Z" style="fill-rule:nonzero;"/>
                <path d="M514.62,501.527L514.62,474.027L520.72,474.027L520.72,479.177C521.053,477.443 521.87,476.068 523.17,475.052C524.47,474.035 526.12,473.527 528.12,473.527C530.82,473.527 532.978,474.427 534.595,476.227C536.212,478.027 537.02,480.443 537.02,483.477L537.02,501.527L530.77,501.527L530.77,484.227C530.77,482.527 530.328,481.218 529.445,480.302C528.562,479.385 527.37,478.927 525.87,478.927C524.303,478.927 523.078,479.393 522.195,480.327C521.312,481.26 520.87,482.593 520.87,484.327L520.87,501.527L514.62,501.527Z" style="fill-rule:nonzero;"/>
                <path d="M550.82,502.027C548.487,502.027 546.453,501.577 544.72,500.677C542.987,499.777 541.645,498.502 540.695,496.852C539.745,495.202 539.27,493.26 539.27,491.027L539.27,484.527C539.27,482.293 539.745,480.352 540.695,478.702C541.645,477.052 542.987,475.777 544.72,474.877C546.453,473.977 548.487,473.527 550.82,473.527C553.12,473.527 555.128,473.977 556.845,474.877C558.562,475.777 559.895,477.035 560.845,478.652C561.795,480.268 562.27,482.16 562.27,484.327L562.27,489.327L545.27,489.327L545.27,491.227C545.27,493.093 545.753,494.502 546.72,495.452C547.687,496.402 549.053,496.877 550.82,496.877C552.12,496.877 553.228,496.652 554.145,496.202C555.062,495.752 555.603,495.093 555.77,494.227L561.97,494.227C561.537,496.593 560.303,498.485 558.27,499.902C556.237,501.318 553.753,502.027 550.82,502.027ZM545.27,484.327L545.27,485.277L556.27,485.227L556.27,484.277C556.27,482.377 555.803,480.91 554.87,479.877C553.937,478.843 552.587,478.327 550.82,478.327C548.987,478.327 547.603,478.852 546.67,479.902C545.737,480.952 545.27,482.427 545.27,484.327Z" style="fill-rule:nonzero;"/>
                <path d="M574.62,501.977C571.353,501.977 568.77,501.235 566.87,499.752C564.97,498.268 564.02,496.26 564.02,493.727L570.17,493.727C570.17,494.793 570.562,495.61 571.345,496.177C572.128,496.743 573.22,497.027 574.62,497.027L576.82,497.027C578.32,497.027 579.478,496.743 580.295,496.177C581.112,495.61 581.52,494.793 581.52,493.727C581.52,492.727 581.237,491.985 580.67,491.502C580.103,491.018 579.237,490.693 578.07,490.527L571.22,489.627C569.02,489.327 567.328,488.477 566.145,487.077C564.962,485.677 564.37,483.86 564.37,481.627C564.37,479.027 565.237,477.035 566.97,475.652C568.703,474.268 571.203,473.577 574.47,473.577L576.77,473.577C579.837,473.577 582.303,474.277 584.17,475.677C586.037,477.077 587.003,478.943 587.07,481.277L580.87,481.277C580.837,480.41 580.453,479.718 579.72,479.202C578.987,478.685 578.003,478.427 576.77,478.427L574.47,478.427C573.137,478.427 572.12,478.702 571.42,479.252C570.72,479.802 570.37,480.543 570.37,481.477C570.37,482.31 570.628,482.927 571.145,483.327C571.662,483.727 572.42,483.977 573.42,484.077L579.87,484.977C582.403,485.277 584.312,486.168 585.595,487.652C586.878,489.135 587.52,491.127 587.52,493.627C587.52,496.293 586.612,498.352 584.795,499.802C582.978,501.252 580.32,501.977 576.82,501.977L574.62,501.977Z" style="fill-rule:nonzero;"/>
            </g>
        </g>
    </g>
</svg>
