<?xml version="1.0" encoding="UTF-8" standalone="no"?>
<!DOCTYPE svg PUBLIC "-//W3C//DTD SVG 1.1//EN" "http://www.w3.org/Graphics/SVG/1.1/DTD/svg11.dtd">
<svg width="100%" height="100%" viewBox="0 0 836 293" version="1.1" xmlns="http://www.w3.org/2000/svg" xmlns:xlink="http://www.w3.org/1999/xlink" xml:space="preserve" xmlns:serif="http://www.serif.com/" style="fill-rule:evenodd;clip-rule:evenodd;stroke-linejoin:round;stroke-miterlimit:2;">
    <g transform="matrix(1,0,0,1,-708.257,-3030.69)">
        <g transform="matrix(7.86628,0,0,7.5708,-9816.52,1687.86)">
            <g transform="matrix(0.42792,0,0,0.444621,1187.39,-7.16003)">
                <path d="M352.12,451.527L352.12,415.027L363.32,415.027C366.82,415.027 369.612,415.877 371.695,417.577C373.778,419.277 374.82,421.56 374.82,424.427C374.82,426.427 374.245,428.143 373.095,429.577C371.945,431.01 370.453,431.877 368.62,432.177L368.62,432.277C369.987,432.443 371.203,432.935 372.27,433.752C373.337,434.568 374.17,435.618 374.77,436.902C375.37,438.185 375.67,439.593 375.67,441.127C375.67,443.227 375.187,445.06 374.22,446.627C373.253,448.193 371.887,449.402 370.12,450.252C368.353,451.102 366.27,451.527 363.87,451.527L352.12,451.527ZM358.22,430.077L363.22,430.077C364.853,430.077 366.153,429.635 367.12,428.752C368.087,427.868 368.57,426.66 368.57,425.127C368.57,423.627 368.095,422.435 367.145,421.552C366.195,420.668 364.887,420.227 363.22,420.227L358.22,420.227L358.22,430.077ZM358.22,446.327L363.52,446.327C365.353,446.327 366.795,445.835 367.845,444.852C368.895,443.868 369.42,442.527 369.42,440.827C369.42,439.127 368.895,437.752 367.845,436.702C366.795,435.652 365.353,435.127 363.52,435.127L358.22,435.127L358.22,446.327Z" style="fill-rule:nonzero;"/>
                <path d="M378.12,451.527L378.12,424.027L384.22,424.027L384.22,429.377C384.553,427.577 385.378,426.152 386.695,425.102C388.012,424.052 389.72,423.527 391.82,423.527C394.62,423.527 396.803,424.427 398.37,426.227C399.937,428.027 400.72,430.543 400.72,433.777L400.72,436.377L394.47,436.377L394.47,434.077C394.47,432.41 394.037,431.135 393.17,430.252C392.303,429.368 391.07,428.927 389.47,428.927C387.803,428.927 386.537,429.427 385.67,430.427C384.803,431.427 384.37,432.843 384.37,434.677L384.37,451.527L378.12,451.527Z" style="fill-rule:nonzero;"/>
                <path d="M410.22,452.027C407.42,452.027 405.212,451.235 403.595,449.652C401.978,448.068 401.17,445.993 401.17,443.427C401.17,440.76 402.087,438.635 403.92,437.052C405.753,435.468 408.27,434.677 411.47,434.677L418.17,434.677L418.17,432.727C418.17,429.96 416.553,428.577 413.32,428.577C411.853,428.577 410.687,428.86 409.82,429.427C408.953,429.993 408.47,430.793 408.37,431.827L402.37,431.827C402.503,429.36 403.545,427.36 405.495,425.827C407.445,424.293 410.07,423.527 413.37,423.527C416.87,423.527 419.587,424.343 421.52,425.977C423.453,427.61 424.42,429.91 424.42,432.877L424.42,451.527L418.32,451.527L418.32,446.377C418.087,448.143 417.253,449.527 415.82,450.527C414.387,451.527 412.52,452.027 410.22,452.027ZM412.22,446.927C414.053,446.927 415.503,446.477 416.57,445.577C417.637,444.677 418.17,443.477 418.17,441.977L418.17,438.727L411.77,438.727C410.403,438.727 409.32,439.11 408.52,439.877C407.72,440.643 407.32,441.627 407.32,442.827C407.32,444.06 407.745,445.052 408.595,445.802C409.445,446.552 410.653,446.927 412.22,446.927Z" style="fill-rule:nonzero;"/>
                <path d="M427.12,451.527L427.12,424.027L433.22,424.027L433.22,429.177C433.553,427.443 434.37,426.068 435.67,425.052C436.97,424.035 438.62,423.527 440.62,423.527C443.32,423.527 445.478,424.427 447.095,426.227C448.712,428.027 449.52,430.443 449.52,433.477L449.52,451.527L443.27,451.527L443.27,434.227C443.27,432.527 442.828,431.218 441.945,430.302C441.062,429.385 439.87,428.927 438.37,428.927C436.803,428.927 435.578,429.393 434.695,430.327C433.812,431.26 433.37,432.593 433.37,434.327L433.37,451.527L427.12,451.527Z" style="fill-rule:nonzero;"/>
                <path d="M363.47,502.027C361.103,502.027 359.053,501.585 357.32,500.702C355.587,499.818 354.245,498.568 353.295,496.952C352.345,495.335 351.87,493.427 351.87,491.227L351.87,475.327C351.87,473.127 352.345,471.218 353.295,469.602C354.245,467.985 355.587,466.735 357.32,465.852C359.053,464.968 361.103,464.527 363.47,464.527C365.803,464.527 367.837,464.968 369.57,465.852C371.303,466.735 372.653,467.985 373.62,469.602C374.587,471.218 375.07,473.127 375.07,475.327L368.77,475.327C368.77,473.627 368.312,472.318 367.395,471.402C366.478,470.485 365.17,470.027 363.47,470.027C361.77,470.027 360.453,470.477 359.52,471.377C358.587,472.277 358.12,473.577 358.12,475.277L358.12,491.227C358.12,492.927 358.587,494.243 359.52,495.177C360.453,496.11 361.77,496.577 363.47,496.577C365.17,496.577 366.478,496.11 367.395,495.177C368.312,494.243 368.77,492.927 368.77,491.227L368.77,487.177L362.57,487.177L362.57,481.777L375.07,481.777L375.07,491.227C375.07,493.427 374.587,495.335 373.62,496.952C372.653,498.568 371.303,499.818 369.57,500.702C367.837,501.585 365.803,502.027 363.47,502.027Z" style="fill-rule:nonzero;"/>
                <path d="M388.27,502.027C384.77,502.027 382.02,501.052 380.02,499.102C378.02,497.152 377.02,494.493 377.02,491.127L377.02,474.027L383.27,474.027L383.27,491.077C383.27,492.81 383.703,494.16 384.57,495.127C385.437,496.093 386.67,496.577 388.27,496.577C389.837,496.577 391.062,496.093 391.945,495.127C392.828,494.16 393.27,492.81 393.27,491.077L393.27,474.027L399.52,474.027L399.52,491.127C399.52,494.493 398.503,497.152 396.47,499.102C394.437,501.052 391.703,502.027 388.27,502.027Z" style="fill-rule:nonzero;"/>
                <path d="M402.07,501.527L402.07,495.877L411.47,495.877L411.47,479.677L403.07,479.677L403.07,474.027L417.72,474.027L417.72,495.877L426.17,495.877L426.17,501.527L402.07,501.527ZM414.17,469.427C412.903,469.427 411.903,469.102 411.17,468.452C410.437,467.802 410.07,466.927 410.07,465.827C410.07,464.727 410.437,463.852 411.17,463.202C411.903,462.552 412.903,462.227 414.17,462.227C415.437,462.227 416.437,462.552 417.17,463.202C417.903,463.852 418.27,464.727 418.27,465.827C418.27,466.927 417.903,467.802 417.17,468.452C416.437,469.102 415.437,469.427 414.17,469.427Z" style="fill-rule:nonzero;"/>
                <path d="M435.77,502.027C433.103,502.027 430.945,501.077 429.295,499.177C427.645,497.277 426.82,494.727 426.82,491.527L426.82,484.077C426.82,480.843 427.637,478.277 429.27,476.377C430.903,474.477 433.07,473.527 435.77,473.527C437.67,473.527 439.278,474.01 440.595,474.977C441.912,475.943 442.837,477.293 443.37,479.027L443.17,472.727L443.27,449.735L449.52,449.735L449.42,501.527L443.32,501.527L443.32,496.527C442.82,498.26 441.92,499.61 440.62,500.577C439.32,501.543 437.703,502.027 435.77,502.027ZM438.12,496.627C439.72,496.627 440.962,496.143 441.845,495.177C442.728,494.21 443.17,492.843 443.17,491.077L443.17,484.477C443.17,482.71 442.728,481.343 441.845,480.377C440.962,479.41 439.72,478.927 438.12,478.927C436.52,478.927 435.278,479.36 434.395,480.227C433.512,481.093 433.07,482.427 433.07,484.227L433.07,491.327C433.07,493.127 433.512,494.46 434.395,495.327C435.278,496.193 436.52,496.627 438.12,496.627Z" style="fill-rule:nonzero;"/>
                <path d="M463.32,502.027C460.987,502.027 458.953,501.577 457.22,500.677C455.487,499.777 454.145,498.502 453.195,496.852C452.245,495.202 451.77,493.26 451.77,491.027L451.77,484.527C451.77,482.293 452.245,480.352 453.195,478.702C454.145,477.052 455.487,475.777 457.22,474.877C458.953,473.977 460.987,473.527 463.32,473.527C465.62,473.527 467.628,473.977 469.345,474.877C471.062,475.777 472.395,477.035 473.345,478.652C474.295,480.268 474.77,482.16 474.77,484.327L474.77,489.327L457.77,489.327L457.77,491.227C457.77,493.093 458.253,494.502 459.22,495.452C460.187,496.402 461.553,496.877 463.32,496.877C464.62,496.877 465.728,496.652 466.645,496.202C467.562,495.752 468.103,495.093 468.27,494.227L474.47,494.227C474.037,496.593 472.803,498.485 470.77,499.902C468.737,501.318 466.253,502.027 463.32,502.027ZM457.77,484.327L457.77,485.277L468.77,485.227L468.77,484.277C468.77,482.377 468.303,480.91 467.37,479.877C466.437,478.843 465.087,478.327 463.32,478.327C461.487,478.327 460.103,478.852 459.17,479.902C458.237,480.952 457.77,482.427 457.77,484.327Z" style="fill-rule:nonzero;"/>
                <g transform="matrix(0.297076,0,0,0.297076,-37.3808,-263.438)">
                    <path d="M1702.26,2471.13L1702.26,2389.84C1700.58,2395.67 1697.55,2400.22 1693.17,2403.47C1688.79,2406.73 1683.35,2408.35 1676.84,2408.35C1667.87,2408.35 1660.6,2405.16 1655.05,2398.76C1649.49,2392.36 1646.72,2383.78 1646.72,2373.01L1646.72,2347.93C1646.72,2337.05 1649.47,2328.41 1654.96,2322.01C1660.46,2315.62 1667.76,2312.42 1676.84,2312.42C1683.24,2312.42 1688.65,2314.05 1693.09,2317.3C1697.52,2320.55 1700.63,2325.1 1702.43,2330.93L1701.75,2309.72L1701.75,2283.81L1722.79,2283.81L1722.79,2452.11L1774.97,2452.11L1774.97,2544.51C1774.97,2547.99 1775.95,2550.77 1777.91,2552.84C1779.88,2554.92 1782.54,2555.96 1785.91,2555.96L1813,2555.96L1813,2574.98L1784.39,2574.98C1775.19,2574.98 1767.81,2572.23 1762.26,2566.73C1756.7,2561.23 1753.93,2553.99 1753.93,2545.02L1753.93,2471.13L1702.26,2471.13ZM1684.75,2390.18C1690.14,2390.18 1694.32,2388.55 1697.29,2385.3C1700.27,2382.04 1701.75,2377.44 1701.75,2371.49L1701.75,2349.28C1701.75,2343.33 1700.27,2338.73 1697.29,2335.48C1694.32,2332.22 1690.14,2330.6 1684.75,2330.6C1679.37,2330.6 1675.19,2332.05 1672.22,2334.97C1669.24,2337.89 1667.76,2342.38 1667.76,2348.43L1667.76,2372.34C1667.76,2378.39 1669.24,2382.88 1672.22,2385.8C1675.19,2388.72 1679.37,2390.18 1684.75,2390.18Z"/>
                </g>
                <path d="M502.07,501.527L502.07,495.877L511.47,495.877L511.47,479.677L503.07,479.677L503.07,474.027L517.72,474.027L517.72,495.877L526.17,495.877L526.17,501.527L502.07,501.527ZM514.17,469.427C512.903,469.427 511.903,469.102 511.17,468.452C510.437,467.802 510.07,466.927 510.07,465.827C510.07,464.727 510.437,463.852 511.17,463.202C511.903,462.552 512.903,462.227 514.17,462.227C515.437,462.227 516.437,462.552 517.17,463.202C517.903,463.852 518.27,464.727 518.27,465.827C518.27,466.927 517.903,467.802 517.17,468.452C516.437,469.102 515.437,469.427 514.17,469.427Z" style="fill-rule:nonzero;"/>
                <path d="M527.12,501.527L527.12,474.027L533.22,474.027L533.22,479.177C533.553,477.443 534.37,476.068 535.67,475.052C536.97,474.035 538.62,473.527 540.62,473.527C543.32,473.527 545.478,474.427 547.095,476.227C548.712,478.027 549.52,480.443 549.52,483.477L549.52,501.527L543.27,501.527L543.27,484.227C543.27,482.527 542.828,481.218 541.945,480.302C541.062,479.385 539.87,478.927 538.37,478.927C536.803,478.927 535.578,479.393 534.695,480.327C533.812,481.26 533.37,482.593 533.37,484.327L533.37,501.527L527.12,501.527Z" style="fill-rule:nonzero;"/>
                <path d="M563.32,502.027C560.987,502.027 558.953,501.577 557.22,500.677C555.487,499.777 554.145,498.502 553.195,496.852C552.245,495.202 551.77,493.26 551.77,491.027L551.77,484.527C551.77,482.293 552.245,480.352 553.195,478.702C554.145,477.052 555.487,475.777 557.22,474.877C558.953,473.977 560.987,473.527 563.32,473.527C565.62,473.527 567.628,473.977 569.345,474.877C571.062,475.777 572.395,477.035 573.345,478.652C574.295,480.268 574.77,482.16 574.77,484.327L574.77,489.327L557.77,489.327L557.77,491.227C557.77,493.093 558.253,494.502 559.22,495.452C560.187,496.402 561.553,496.877 563.32,496.877C564.62,496.877 565.728,496.652 566.645,496.202C567.562,495.752 568.103,495.093 568.27,494.227L574.47,494.227C574.037,496.593 572.803,498.485 570.77,499.902C568.737,501.318 566.253,502.027 563.32,502.027ZM557.77,484.327L557.77,485.277L568.77,485.227L568.77,484.277C568.77,482.377 568.303,480.91 567.37,479.877C566.437,478.843 565.087,478.327 563.32,478.327C561.487,478.327 560.103,478.852 559.17,479.902C558.237,480.952 557.77,482.427 557.77,484.327Z" style="fill-rule:nonzero;"/>
                <path d="M587.12,501.977C583.853,501.977 581.27,501.235 579.37,499.752C577.47,498.268 576.52,496.26 576.52,493.727L582.67,493.727C582.67,494.793 583.062,495.61 583.845,496.177C584.628,496.743 585.72,497.027 587.12,497.027L589.32,497.027C590.82,497.027 591.978,496.743 592.795,496.177C593.612,495.61 594.02,494.793 594.02,493.727C594.02,492.727 593.737,491.985 593.17,491.502C592.603,491.018 591.737,490.693 590.57,490.527L583.72,489.627C581.52,489.327 579.828,488.477 578.645,487.077C577.462,485.677 576.87,483.86 576.87,481.627C576.87,479.027 577.737,477.035 579.47,475.652C581.203,474.268 583.703,473.577 586.97,473.577L589.27,473.577C592.337,473.577 594.803,474.277 596.67,475.677C598.537,477.077 599.503,478.943 599.57,481.277L593.37,481.277C593.337,480.41 592.953,479.718 592.22,479.202C591.487,478.685 590.503,478.427 589.27,478.427L586.97,478.427C585.637,478.427 584.62,478.702 583.92,479.252C583.22,479.802 582.87,480.543 582.87,481.477C582.87,482.31 583.128,482.927 583.645,483.327C584.162,483.727 584.92,483.977 585.92,484.077L592.37,484.977C594.903,485.277 596.812,486.168 598.095,487.652C599.378,489.135 600.02,491.127 600.02,493.627C600.02,496.293 599.112,498.352 597.295,499.802C595.478,501.252 592.82,501.977 589.32,501.977L587.12,501.977Z" style="fill-rule:nonzero;"/>
            </g>
        </g>
    </g>
</svg>
