<?xml version="1.0" encoding="UTF-8" standalone="no"?>
<!DOCTYPE svg PUBLIC "-//W3C//DTD SVG 1.1//EN" "http://www.w3.org/Graphics/SVG/1.1/DTD/svg11.dtd">
<svg width="100%" height="100%" viewBox="0 0 927 331" version="1.1" xmlns="http://www.w3.org/2000/svg" xmlns:xlink="http://www.w3.org/1999/xlink" xml:space="preserve" xmlns:serif="http://www.serif.com/" style="fill-rule:evenodd;clip-rule:evenodd;stroke-linejoin:round;stroke-miterlimit:2;">
    <g transform="matrix(1,0,0,1,-3168.6,-4608.61)">
        <g transform="matrix(7.86628,0,0,7.5708,-7314.95,3270.5)">
            <g transform="matrix(0.42792,0,0,0.444621,1188.46,-6.53756)">
                <path d="M339.52,451.527L339.52,415.027L350.37,415.027C352.837,415.027 354.978,415.502 356.795,416.452C358.612,417.402 360.02,418.727 361.02,420.427C362.02,422.127 362.52,424.127 362.52,426.427L362.52,440.077C362.52,442.377 362.02,444.385 361.02,446.102C360.02,447.818 358.612,449.152 356.795,450.102C354.978,451.052 352.837,451.527 350.37,451.527L339.52,451.527ZM345.77,445.927L350.37,445.927C352.17,445.927 353.603,445.402 354.67,444.352C355.737,443.302 356.27,441.877 356.27,440.077L356.27,426.427C356.27,424.66 355.737,423.252 354.67,422.202C353.603,421.152 352.17,420.627 350.37,420.627L345.77,420.627L345.77,445.927Z" style="fill-rule:nonzero;"/>
                <path d="M375.82,452.027C373.487,452.027 371.453,451.577 369.72,450.677C367.987,449.777 366.645,448.502 365.695,446.852C364.745,445.202 364.27,443.26 364.27,441.027L364.27,434.527C364.27,432.293 364.745,430.352 365.695,428.702C366.645,427.052 367.987,425.777 369.72,424.877C371.453,423.977 373.487,423.527 375.82,423.527C378.12,423.527 380.128,423.977 381.845,424.877C383.562,425.777 384.895,427.035 385.845,428.652C386.795,430.268 387.27,432.16 387.27,434.327L387.27,439.327L370.27,439.327L370.27,441.227C370.27,443.093 370.753,444.502 371.72,445.452C372.687,446.402 374.053,446.877 375.82,446.877C377.12,446.877 378.228,446.652 379.145,446.202C380.062,445.752 380.603,445.093 380.77,444.227L386.97,444.227C386.537,446.593 385.303,448.485 383.27,449.902C381.237,451.318 378.753,452.027 375.82,452.027ZM370.27,434.327L370.27,435.277L381.27,435.227L381.27,434.277C381.27,432.377 380.803,430.91 379.87,429.877C378.937,428.843 377.587,428.327 375.82,428.327C373.987,428.327 372.603,428.852 371.67,429.902C370.737,430.952 370.27,432.427 370.27,434.327Z" style="fill-rule:nonzero;"/>
                <path d="M399.62,451.977C396.353,451.977 393.77,451.235 391.87,449.752C389.97,448.268 389.02,446.26 389.02,443.727L395.17,443.727C395.17,444.793 395.562,445.61 396.345,446.177C397.128,446.743 398.22,447.027 399.62,447.027L401.82,447.027C403.32,447.027 404.478,446.743 405.295,446.177C406.112,445.61 406.52,444.793 406.52,443.727C406.52,442.727 406.237,441.985 405.67,441.502C405.103,441.018 404.237,440.693 403.07,440.527L396.22,439.627C394.02,439.327 392.328,438.477 391.145,437.077C389.962,435.677 389.37,433.86 389.37,431.627C389.37,429.027 390.237,427.035 391.97,425.652C393.703,424.268 396.203,423.577 399.47,423.577L401.77,423.577C404.837,423.577 407.303,424.277 409.17,425.677C411.037,427.077 412.003,428.943 412.07,431.277L405.87,431.277C405.837,430.41 405.453,429.718 404.72,429.202C403.987,428.685 403.003,428.427 401.77,428.427L399.47,428.427C398.137,428.427 397.12,428.702 396.42,429.252C395.72,429.802 395.37,430.543 395.37,431.477C395.37,432.31 395.628,432.927 396.145,433.327C396.662,433.727 397.42,433.977 398.42,434.077L404.87,434.977C407.403,435.277 409.312,436.168 410.595,437.652C411.878,439.135 412.52,441.127 412.52,443.627C412.52,446.293 411.612,448.352 409.795,449.802C407.978,451.252 405.32,451.977 401.82,451.977L399.62,451.977Z" style="fill-rule:nonzero;"/>
                <path d="M414.57,451.527L414.57,445.877L423.97,445.877L423.97,429.677L415.57,429.677L415.57,424.027L430.22,424.027L430.22,445.877L438.67,445.877L438.67,451.527L414.57,451.527ZM426.67,419.427C425.403,419.427 424.403,419.102 423.67,418.452C422.937,417.802 422.57,416.927 422.57,415.827C422.57,414.727 422.937,413.852 423.67,413.202C424.403,412.552 425.403,412.227 426.67,412.227C427.937,412.227 428.937,412.552 429.67,413.202C430.403,413.852 430.77,414.727 430.77,415.827C430.77,416.927 430.403,417.802 429.67,418.452C428.937,419.102 427.937,419.427 426.67,419.427Z" style="fill-rule:nonzero;"/>
                <path d="M443.37,460.527L443.37,455.327L451.12,455.327C452.587,455.327 453.72,454.935 454.52,454.152C455.32,453.368 455.72,452.31 455.72,450.977L455.72,449.327L455.82,445.027C455.253,446.56 454.345,447.752 453.095,448.602C451.845,449.452 450.32,449.877 448.52,449.877C445.72,449.877 443.495,448.935 441.845,447.052C440.195,445.168 439.37,442.61 439.37,439.377L439.37,434.027C439.37,430.827 440.195,428.277 441.845,426.377C443.495,424.477 445.72,423.527 448.52,423.527C450.32,423.527 451.845,423.952 453.095,424.802C454.345,425.652 455.253,426.86 455.82,428.427L455.82,424.027L461.92,424.027L461.92,451.127C461.92,454.027 460.962,456.318 459.045,458.002C457.128,459.685 454.52,460.527 451.22,460.527L443.37,460.527ZM450.62,444.527C452.22,444.527 453.462,444.052 454.345,443.102C455.228,442.152 455.67,440.827 455.67,439.127L455.67,434.327C455.67,432.627 455.228,431.302 454.345,430.352C453.462,429.402 452.22,428.927 450.62,428.927C449.02,428.927 447.787,429.385 446.92,430.302C446.053,431.218 445.62,432.493 445.62,434.127L445.62,439.327C445.62,440.96 446.053,442.235 446.92,443.152C447.787,444.068 449.02,444.527 450.62,444.527Z" style="fill-rule:nonzero;"/>
                <path d="M464.62,451.527L464.62,424.027L470.72,424.027L470.72,429.177C471.053,427.443 471.87,426.068 473.17,425.052C474.47,424.035 476.12,423.527 478.12,423.527C480.82,423.527 482.978,424.427 484.595,426.227C486.212,428.027 487.02,430.443 487.02,433.477L487.02,451.527L480.77,451.527L480.77,434.227C480.77,432.527 480.328,431.218 479.445,430.302C478.562,429.385 477.37,428.927 475.87,428.927C474.303,428.927 473.078,429.393 472.195,430.327C471.312,431.26 470.87,432.593 470.87,434.327L470.87,451.527L464.62,451.527Z" style="fill-rule:nonzero;"/>
                <path d="M528.52,451.527C525.953,451.527 523.912,450.785 522.395,449.302C520.878,447.818 520.12,445.81 520.12,443.277L520.12,429.677L512.52,429.677L512.52,424.027L520.12,424.027L520.12,416.277L526.42,416.277L526.42,424.027L537.37,424.027L537.37,429.677L526.42,429.677L526.42,443.127C526.42,443.927 526.645,444.585 527.095,445.102C527.545,445.618 528.17,445.877 528.97,445.877L537.12,445.877L537.12,451.527L528.52,451.527Z" style="fill-rule:nonzero;"/>
                <path d="M539.62,451.527L539.62,415.027L545.87,415.027L545.87,424.027L545.72,429.127C546.053,427.393 546.87,426.027 548.17,425.027C549.47,424.027 551.12,423.527 553.12,423.527C555.82,423.527 557.978,424.427 559.595,426.227C561.212,428.027 562.02,430.443 562.02,433.477L562.02,451.527L555.77,451.527L555.77,434.227C555.77,432.527 555.328,431.218 554.445,430.302C553.562,429.385 552.37,428.927 550.87,428.927C549.303,428.927 548.078,429.393 547.195,430.327C546.312,431.26 545.87,432.593 545.87,434.327L545.87,451.527L539.62,451.527Z" style="fill-rule:nonzero;"/>
                <path d="M572.72,452.027C569.92,452.027 567.712,451.235 566.095,449.652C564.478,448.068 563.67,445.993 563.67,443.427C563.67,440.76 564.587,438.635 566.42,437.052C568.253,435.468 570.77,434.677 573.97,434.677L580.67,434.677L580.67,432.727C580.67,429.96 579.053,428.577 575.82,428.577C574.353,428.577 573.187,428.86 572.32,429.427C571.453,429.993 570.97,430.793 570.87,431.827L564.87,431.827C565.003,429.36 566.045,427.36 567.995,425.827C569.945,424.293 572.57,423.527 575.87,423.527C579.37,423.527 582.087,424.343 584.02,425.977C585.953,427.61 586.92,429.91 586.92,432.877L586.92,451.527L580.82,451.527L580.82,446.377C580.587,448.143 579.753,449.527 578.32,450.527C576.887,451.527 575.02,452.027 572.72,452.027ZM574.72,446.927C576.553,446.927 578.003,446.477 579.07,445.577C580.137,444.677 580.67,443.477 580.67,441.977L580.67,438.727L574.27,438.727C572.903,438.727 571.82,439.11 571.02,439.877C570.22,440.643 569.82,441.627 569.82,442.827C569.82,444.06 570.245,445.052 571.095,445.802C571.945,446.552 573.153,446.927 574.72,446.927Z" style="fill-rule:nonzero;"/>
                <path d="M603.52,451.527C600.953,451.527 598.912,450.785 597.395,449.302C595.878,447.818 595.12,445.81 595.12,443.277L595.12,429.677L587.52,429.677L587.52,424.027L595.12,424.027L595.12,416.277L601.42,416.277L601.42,424.027L612.37,424.027L612.37,429.677L601.42,429.677L601.42,443.127C601.42,443.927 601.645,444.585 602.095,445.102C602.545,445.618 603.17,445.877 603.97,445.877L612.12,445.877L612.12,451.527L603.52,451.527Z" style="fill-rule:nonzero;"/>
                <path d="M355.22,501.527C352.487,501.527 350.295,500.71 348.645,499.077C346.995,497.443 346.17,495.293 346.17,492.627L346.17,470.677L337.12,470.677L337.12,465.027L352.42,465.027L352.42,492.477C352.42,493.51 352.712,494.335 353.295,494.952C353.878,495.568 354.67,495.877 355.67,495.877L363.72,495.877L363.72,501.527L355.22,501.527Z" style="fill-rule:nonzero;"/>
                <path d="M364.57,501.527L364.57,495.877L373.97,495.877L373.97,479.677L365.57,479.677L365.57,474.027L380.22,474.027L380.22,495.877L388.67,495.877L388.67,501.527L364.57,501.527ZM376.67,469.427C375.403,469.427 374.403,469.102 373.67,468.452C372.937,467.802 372.57,466.927 372.57,465.827C372.57,464.727 372.937,463.852 373.67,463.202C374.403,462.552 375.403,462.227 376.67,462.227C377.937,462.227 378.937,462.552 379.67,463.202C380.403,463.852 380.77,464.727 380.77,465.827C380.77,466.927 380.403,467.802 379.67,468.452C378.937,469.102 377.937,469.427 376.67,469.427Z" style="fill-rule:nonzero;"/>
                <path d="M389.62,501.527L389.62,474.027L395.72,474.027L395.72,479.177C396.053,477.443 396.87,476.068 398.17,475.052C399.47,474.035 401.12,473.527 403.12,473.527C405.82,473.527 407.978,474.427 409.595,476.227C411.212,478.027 412.02,480.443 412.02,483.477L412.02,501.527L405.77,501.527L405.77,484.227C405.77,482.527 405.328,481.218 404.445,480.302C403.562,479.385 402.37,478.927 400.87,478.927C399.303,478.927 398.078,479.393 397.195,480.327C396.312,481.26 395.87,482.593 395.87,484.327L395.87,501.527L389.62,501.527Z" style="fill-rule:nonzero;"/>
                <path d="M418.37,510.527L418.37,505.327L426.12,505.327C427.587,505.327 428.72,504.935 429.52,504.152C430.32,503.368 430.72,502.31 430.72,500.977L430.72,499.327L430.82,495.027C430.253,496.56 429.345,497.752 428.095,498.602C426.845,499.452 425.32,499.877 423.52,499.877C420.72,499.877 418.495,498.935 416.845,497.052C415.195,495.168 414.37,492.61 414.37,489.377L414.37,484.027C414.37,480.827 415.195,478.277 416.845,476.377C418.495,474.477 420.72,473.527 423.52,473.527C425.32,473.527 426.845,473.952 428.095,474.802C429.345,475.652 430.253,476.86 430.82,478.427L430.82,474.027L436.92,474.027L436.92,501.127C436.92,504.027 435.962,506.318 434.045,508.002C432.128,509.685 429.52,510.527 426.22,510.527L418.37,510.527ZM425.62,494.527C427.22,494.527 428.462,494.052 429.345,493.102C430.228,492.152 430.67,490.827 430.67,489.127L430.67,484.327C430.67,482.627 430.228,481.302 429.345,480.352C428.462,479.402 427.22,478.927 425.62,478.927C424.02,478.927 422.787,479.385 421.92,480.302C421.053,481.218 420.62,482.493 420.62,484.127L420.62,489.327C420.62,490.96 421.053,492.235 421.92,493.152C422.787,494.068 424.02,494.527 425.62,494.527Z" style="fill-rule:nonzero;"/>
                <path d="M450.82,502.027C448.487,502.027 446.453,501.577 444.72,500.677C442.987,499.777 441.645,498.502 440.695,496.852C439.745,495.202 439.27,493.26 439.27,491.027L439.27,484.527C439.27,482.293 439.745,480.352 440.695,478.702C441.645,477.052 442.987,475.777 444.72,474.877C446.453,473.977 448.487,473.527 450.82,473.527C453.12,473.527 455.128,473.977 456.845,474.877C458.562,475.777 459.895,477.035 460.845,478.652C461.795,480.268 462.27,482.16 462.27,484.327L462.27,489.327L445.27,489.327L445.27,491.227C445.27,493.093 445.753,494.502 446.72,495.452C447.687,496.402 449.053,496.877 450.82,496.877C452.12,496.877 453.228,496.652 454.145,496.202C455.062,495.752 455.603,495.093 455.77,494.227L461.97,494.227C461.537,496.593 460.303,498.485 458.27,499.902C456.237,501.318 453.753,502.027 450.82,502.027ZM445.27,484.327L445.27,485.277L456.27,485.227L456.27,484.277C456.27,482.377 455.803,480.91 454.87,479.877C453.937,478.843 452.587,478.327 450.82,478.327C448.987,478.327 447.603,478.852 446.67,479.902C445.737,480.952 445.27,482.427 445.27,484.327Z" style="fill-rule:nonzero;"/>
                <path d="M465.62,501.527L465.62,474.027L471.72,474.027L471.72,479.377C472.053,477.577 472.878,476.152 474.195,475.102C475.512,474.052 477.22,473.527 479.32,473.527C482.12,473.527 484.303,474.427 485.87,476.227C487.437,478.027 488.22,480.543 488.22,483.777L488.22,486.377L481.97,486.377L481.97,484.077C481.97,482.41 481.537,481.135 480.67,480.252C479.803,479.368 478.57,478.927 476.97,478.927C475.303,478.927 474.037,479.427 473.17,480.427C472.303,481.427 471.87,482.843 471.87,484.677L471.87,501.527L465.62,501.527Z" style="fill-rule:nonzero;"/>
                <path d="M499.62,501.977C496.353,501.977 493.77,501.235 491.87,499.752C489.97,498.268 489.02,496.26 489.02,493.727L495.17,493.727C495.17,494.793 495.562,495.61 496.345,496.177C497.128,496.743 498.22,497.027 499.62,497.027L501.82,497.027C503.32,497.027 504.478,496.743 505.295,496.177C506.112,495.61 506.52,494.793 506.52,493.727C506.52,492.727 506.237,491.985 505.67,491.502C505.103,491.018 504.237,490.693 503.07,490.527L496.22,489.627C494.02,489.327 492.328,488.477 491.145,487.077C489.962,485.677 489.37,483.86 489.37,481.627C489.37,479.027 490.237,477.035 491.97,475.652C493.703,474.268 496.203,473.577 499.47,473.577L501.77,473.577C504.837,473.577 507.303,474.277 509.17,475.677C511.037,477.077 512.003,478.943 512.07,481.277L505.87,481.277C505.837,480.41 505.453,479.718 504.72,479.202C503.987,478.685 503.003,478.427 501.77,478.427L499.47,478.427C498.137,478.427 497.12,478.702 496.42,479.252C495.72,479.802 495.37,480.543 495.37,481.477C495.37,482.31 495.628,482.927 496.145,483.327C496.662,483.727 497.42,483.977 498.42,484.077L504.87,484.977C507.403,485.277 509.312,486.168 510.595,487.652C511.878,489.135 512.52,491.127 512.52,493.627C512.52,496.293 511.612,498.352 509.795,499.802C507.978,501.252 505.32,501.977 501.82,501.977L499.62,501.977Z" style="fill-rule:nonzero;"/>
            </g>
        </g>
    </g>
</svg>
