<?xml version="1.0" encoding="UTF-8" standalone="no"?>
<!DOCTYPE svg PUBLIC "-//W3C//DTD SVG 1.1//EN" "http://www.w3.org/Graphics/SVG/1.1/DTD/svg11.dtd">
<svg width="100%" height="100%" viewBox="0 0 834 322" version="1.1" xmlns="http://www.w3.org/2000/svg" xmlns:xlink="http://www.w3.org/1999/xlink" xml:space="preserve" xmlns:serif="http://www.serif.com/" style="fill-rule:evenodd;clip-rule:evenodd;stroke-linejoin:round;stroke-miterlimit:2;">
    <g transform="matrix(1,0,0,1,-1937.44,-5943.11)">
        <g transform="matrix(7.86628,0,0,7.5708,-8588.69,4595.57)">
            <g transform="matrix(0.42792,0,0,0.444621,1188.46,-6.53756)">
                <path d="M349.77,451.527L349.77,415.027L372.47,415.027L372.47,420.827L355.92,420.827L355.92,430.577L371.17,430.577L371.17,436.377L356.02,436.377L356.02,451.527L349.77,451.527Z" style="fill-rule:nonzero;"/>
                <path d="M385.77,451.977C382.237,451.977 379.437,450.985 377.37,449.002C375.303,447.018 374.27,444.343 374.27,440.977L374.27,434.577C374.27,431.177 375.303,428.493 377.37,426.527C379.437,424.56 382.237,423.577 385.77,423.577C389.303,423.577 392.103,424.56 394.17,426.527C396.237,428.493 397.27,431.177 397.27,434.577L397.27,440.977C397.27,444.343 396.237,447.018 394.17,449.002C392.103,450.985 389.303,451.977 385.77,451.977ZM385.77,446.527C387.437,446.527 388.728,446.068 389.645,445.152C390.562,444.235 391.02,442.91 391.02,441.177L391.02,434.377C391.02,432.643 390.562,431.318 389.645,430.402C388.728,429.485 387.437,429.027 385.77,429.027C384.103,429.027 382.812,429.485 381.895,430.402C380.978,431.318 380.52,432.643 380.52,434.377L380.52,441.177C380.52,442.91 380.978,444.235 381.895,445.152C382.812,446.068 384.103,446.527 385.77,446.527Z" style="fill-rule:nonzero;"/>
                <path d="M400.62,451.527L400.62,424.027L406.72,424.027L406.72,429.377C407.053,427.577 407.878,426.152 409.195,425.102C410.512,424.052 412.22,423.527 414.32,423.527C417.12,423.527 419.303,424.427 420.87,426.227C422.437,428.027 423.22,430.543 423.22,433.777L423.22,436.377L416.97,436.377L416.97,434.077C416.97,432.41 416.537,431.135 415.67,430.252C414.803,429.368 413.57,428.927 411.97,428.927C410.303,428.927 409.037,429.427 408.17,430.427C407.303,431.427 406.87,432.843 406.87,434.677L406.87,451.527L400.62,451.527Z" style="fill-rule:nonzero;"/>
                <path d="M423.12,451.527L423.12,424.027L428.32,424.027L428.32,428.027L428.47,428.027C428.57,426.693 429.037,425.61 429.87,424.777C430.703,423.943 431.753,423.527 433.02,423.527C434.253,423.527 435.303,423.918 436.17,424.702C437.037,425.485 437.62,426.543 437.92,427.877C438.053,426.543 438.545,425.485 439.395,424.702C440.245,423.918 441.32,423.527 442.62,423.527C444.287,423.527 445.67,424.185 446.77,425.502C447.87,426.818 448.42,428.51 448.42,430.577L448.42,451.527L442.92,451.527L442.92,431.027C442.92,430.127 442.712,429.418 442.295,428.902C441.878,428.385 441.287,428.127 440.52,428.127C439.02,428.127 438.27,429.093 438.27,431.027L438.27,451.527L433.27,451.527L433.27,431.027C433.27,430.127 433.078,429.418 432.695,428.902C432.312,428.385 431.753,428.127 431.02,428.127C429.42,428.127 428.62,429.093 428.62,431.027L428.62,451.527L423.12,451.527Z" style="fill-rule:nonzero;"/>
                <path d="M473.12,451.527L473.12,424.027L478.32,424.027L478.32,428.027L478.47,428.027C478.57,426.693 479.037,425.61 479.87,424.777C480.703,423.943 481.753,423.527 483.02,423.527C484.253,423.527 485.303,423.918 486.17,424.702C487.037,425.485 487.62,426.543 487.92,427.877C488.053,426.543 488.545,425.485 489.395,424.702C490.245,423.918 491.32,423.527 492.62,423.527C494.287,423.527 495.67,424.185 496.77,425.502C497.87,426.818 498.42,428.51 498.42,430.577L498.42,451.527L492.92,451.527L492.92,431.027C492.92,430.127 492.712,429.418 492.295,428.902C491.878,428.385 491.287,428.127 490.52,428.127C489.02,428.127 488.27,429.093 488.27,431.027L488.27,451.527L483.27,451.527L483.27,431.027C483.27,430.127 483.078,429.418 482.695,428.902C482.312,428.385 481.753,428.127 481.02,428.127C479.42,428.127 478.62,429.093 478.62,431.027L478.62,451.527L473.12,451.527Z" style="fill-rule:nonzero;"/>
                <path d="M510.82,452.027C508.487,452.027 506.453,451.577 504.72,450.677C502.987,449.777 501.645,448.502 500.695,446.852C499.745,445.202 499.27,443.26 499.27,441.027L499.27,434.527C499.27,432.293 499.745,430.352 500.695,428.702C501.645,427.052 502.987,425.777 504.72,424.877C506.453,423.977 508.487,423.527 510.82,423.527C513.12,423.527 515.128,423.977 516.845,424.877C518.562,425.777 519.895,427.035 520.845,428.652C521.795,430.268 522.27,432.16 522.27,434.327L522.27,439.327L505.27,439.327L505.27,441.227C505.27,443.093 505.753,444.502 506.72,445.452C507.687,446.402 509.053,446.877 510.82,446.877C512.12,446.877 513.228,446.652 514.145,446.202C515.062,445.752 515.603,445.093 515.77,444.227L521.97,444.227C521.537,446.593 520.303,448.485 518.27,449.902C516.237,451.318 513.753,452.027 510.82,452.027ZM505.27,434.327L505.27,435.277L516.27,435.227L516.27,434.277C516.27,432.377 515.803,430.91 514.87,429.877C513.937,428.843 512.587,428.327 510.82,428.327C508.987,428.327 507.603,428.852 506.67,429.902C505.737,430.952 505.27,432.427 505.27,434.327Z" style="fill-rule:nonzero;"/>
                <path d="M535.82,452.027C533.487,452.027 531.453,451.577 529.72,450.677C527.987,449.777 526.645,448.502 525.695,446.852C524.745,445.202 524.27,443.26 524.27,441.027L524.27,434.527C524.27,432.293 524.745,430.352 525.695,428.702C526.645,427.052 527.987,425.777 529.72,424.877C531.453,423.977 533.487,423.527 535.82,423.527C538.12,423.527 540.128,423.977 541.845,424.877C543.562,425.777 544.895,427.035 545.845,428.652C546.795,430.268 547.27,432.16 547.27,434.327L547.27,439.327L530.27,439.327L530.27,441.227C530.27,443.093 530.753,444.502 531.72,445.452C532.687,446.402 534.053,446.877 535.82,446.877C537.12,446.877 538.228,446.652 539.145,446.202C540.062,445.752 540.603,445.093 540.77,444.227L546.97,444.227C546.537,446.593 545.303,448.485 543.27,449.902C541.237,451.318 538.753,452.027 535.82,452.027ZM530.27,434.327L530.27,435.277L541.27,435.227L541.27,434.277C541.27,432.377 540.803,430.91 539.87,429.877C538.937,428.843 537.587,428.327 535.82,428.327C533.987,428.327 532.603,428.852 531.67,429.902C530.737,430.952 530.27,432.427 530.27,434.327Z" style="fill-rule:nonzero;"/>
                <path d="M563.52,451.527C560.953,451.527 558.912,450.785 557.395,449.302C555.878,447.818 555.12,445.81 555.12,443.277L555.12,429.677L547.52,429.677L547.52,424.027L555.12,424.027L555.12,416.277L561.42,416.277L561.42,424.027L572.37,424.027L572.37,429.677L561.42,429.677L561.42,443.127C561.42,443.927 561.645,444.585 562.095,445.102C562.545,445.618 563.17,445.877 563.97,445.877L572.12,445.877L572.12,451.527L563.52,451.527Z" style="fill-rule:nonzero;"/>
                <path d="M584.62,451.977C581.353,451.977 578.77,451.235 576.87,449.752C574.97,448.268 574.02,446.26 574.02,443.727L580.17,443.727C580.17,444.793 580.562,445.61 581.345,446.177C582.128,446.743 583.22,447.027 584.62,447.027L586.82,447.027C588.32,447.027 589.478,446.743 590.295,446.177C591.112,445.61 591.52,444.793 591.52,443.727C591.52,442.727 591.237,441.985 590.67,441.502C590.103,441.018 589.237,440.693 588.07,440.527L581.22,439.627C579.02,439.327 577.328,438.477 576.145,437.077C574.962,435.677 574.37,433.86 574.37,431.627C574.37,429.027 575.237,427.035 576.97,425.652C578.703,424.268 581.203,423.577 584.47,423.577L586.77,423.577C589.837,423.577 592.303,424.277 594.17,425.677C596.037,427.077 597.003,428.943 597.07,431.277L590.87,431.277C590.837,430.41 590.453,429.718 589.72,429.202C588.987,428.685 588.003,428.427 586.77,428.427L584.47,428.427C583.137,428.427 582.12,428.702 581.42,429.252C580.72,429.802 580.37,430.543 580.37,431.477C580.37,432.31 580.628,432.927 581.145,433.327C581.662,433.727 582.42,433.977 583.42,434.077L589.87,434.977C592.403,435.277 594.312,436.168 595.595,437.652C596.878,439.135 597.52,441.127 597.52,443.627C597.52,446.293 596.612,448.352 594.795,449.802C592.978,451.252 590.32,451.977 586.82,451.977L584.62,451.977Z" style="fill-rule:nonzero;"/>
                <path d="M358.27,501.527L358.27,483.427L350.72,483.427L350.72,477.777L358.27,477.777L358.27,472.927C358.27,470.527 359.07,468.61 360.67,467.177C362.27,465.743 364.387,465.027 367.02,465.027L375.07,465.027L375.07,470.527L367.17,470.527C366.37,470.527 365.728,470.752 365.245,471.202C364.762,471.652 364.52,472.26 364.52,473.027L364.52,477.777L375.07,477.777L375.07,483.427L364.52,483.427L364.52,501.527L358.27,501.527Z" style="fill-rule:nonzero;"/>
                <path d="M388.32,502.027C385.987,502.027 383.953,501.577 382.22,500.677C380.487,499.777 379.145,498.502 378.195,496.852C377.245,495.202 376.77,493.26 376.77,491.027L376.77,484.527C376.77,482.293 377.245,480.352 378.195,478.702C379.145,477.052 380.487,475.777 382.22,474.877C383.953,473.977 385.987,473.527 388.32,473.527C390.62,473.527 392.628,473.977 394.345,474.877C396.062,475.777 397.395,477.035 398.345,478.652C399.295,480.268 399.77,482.16 399.77,484.327L399.77,489.327L382.77,489.327L382.77,491.227C382.77,493.093 383.253,494.502 384.22,495.452C385.187,496.402 386.553,496.877 388.32,496.877C389.62,496.877 390.728,496.652 391.645,496.202C392.562,495.752 393.103,495.093 393.27,494.227L399.47,494.227C399.037,496.593 397.803,498.485 395.77,499.902C393.737,501.318 391.253,502.027 388.32,502.027ZM382.77,484.327L382.77,485.277L393.77,485.227L393.77,484.277C393.77,482.377 393.303,480.91 392.37,479.877C391.437,478.843 390.087,478.327 388.32,478.327C386.487,478.327 385.103,478.852 384.17,479.902C383.237,480.952 382.77,482.427 382.77,484.327Z" style="fill-rule:nonzero;"/>
                <path d="M413.32,502.027C410.987,502.027 408.953,501.577 407.22,500.677C405.487,499.777 404.145,498.502 403.195,496.852C402.245,495.202 401.77,493.26 401.77,491.027L401.77,484.527C401.77,482.293 402.245,480.352 403.195,478.702C404.145,477.052 405.487,475.777 407.22,474.877C408.953,473.977 410.987,473.527 413.32,473.527C415.62,473.527 417.628,473.977 419.345,474.877C421.062,475.777 422.395,477.035 423.345,478.652C424.295,480.268 424.77,482.16 424.77,484.327L424.77,489.327L407.77,489.327L407.77,491.227C407.77,493.093 408.253,494.502 409.22,495.452C410.187,496.402 411.553,496.877 413.32,496.877C414.62,496.877 415.728,496.652 416.645,496.202C417.562,495.752 418.103,495.093 418.27,494.227L424.47,494.227C424.037,496.593 422.803,498.485 420.77,499.902C418.737,501.318 416.253,502.027 413.32,502.027ZM407.77,484.327L407.77,485.277L418.77,485.227L418.77,484.277C418.77,482.377 418.303,480.91 417.37,479.877C416.437,478.843 415.087,478.327 413.32,478.327C411.487,478.327 410.103,478.852 409.17,479.902C408.237,480.952 407.77,482.427 407.77,484.327Z" style="fill-rule:nonzero;"/>
                <path d="M442.72,501.527C439.987,501.527 437.795,500.71 436.145,499.077C434.495,497.443 433.67,495.293 433.67,492.627L433.67,470.677L424.62,470.677L424.62,465.027L439.92,465.027L439.92,492.477C439.92,493.51 440.212,494.335 440.795,494.952C441.378,495.568 442.17,495.877 443.17,495.877L451.22,495.877L451.22,501.527L442.72,501.527Z" style="fill-rule:nonzero;"/>
                <path d="M452.07,501.527L452.07,495.877L461.47,495.877L461.47,479.677L453.07,479.677L453.07,474.027L467.72,474.027L467.72,495.877L476.17,495.877L476.17,501.527L452.07,501.527ZM464.17,469.427C462.903,469.427 461.903,469.102 461.17,468.452C460.437,467.802 460.07,466.927 460.07,465.827C460.07,464.727 460.437,463.852 461.17,463.202C461.903,462.552 462.903,462.227 464.17,462.227C465.437,462.227 466.437,462.552 467.17,463.202C467.903,463.852 468.27,464.727 468.27,465.827C468.27,466.927 467.903,467.802 467.17,468.452C466.437,469.102 465.437,469.427 464.17,469.427Z" style="fill-rule:nonzero;"/>
                <path d="M477.12,501.527L477.12,474.027L483.22,474.027L483.22,479.177C483.553,477.443 484.37,476.068 485.67,475.052C486.97,474.035 488.62,473.527 490.62,473.527C493.32,473.527 495.478,474.427 497.095,476.227C498.712,478.027 499.52,480.443 499.52,483.477L499.52,501.527L493.27,501.527L493.27,484.227C493.27,482.527 492.828,481.218 491.945,480.302C491.062,479.385 489.87,478.927 488.37,478.927C486.803,478.927 485.578,479.393 484.695,480.327C483.812,481.26 483.37,482.593 483.37,484.327L483.37,501.527L477.12,501.527Z" style="fill-rule:nonzero;"/>
                <path d="M505.87,510.527L505.87,505.327L513.62,505.327C515.087,505.327 516.22,504.935 517.02,504.152C517.82,503.368 518.22,502.31 518.22,500.977L518.22,499.327L518.32,495.027C517.753,496.56 516.845,497.752 515.595,498.602C514.345,499.452 512.82,499.877 511.02,499.877C508.22,499.877 505.995,498.935 504.345,497.052C502.695,495.168 501.87,492.61 501.87,489.377L501.87,484.027C501.87,480.827 502.695,478.277 504.345,476.377C505.995,474.477 508.22,473.527 511.02,473.527C512.82,473.527 514.345,473.952 515.595,474.802C516.845,475.652 517.753,476.86 518.32,478.427L518.32,474.027L524.42,474.027L524.42,501.127C524.42,504.027 523.462,506.318 521.545,508.002C519.628,509.685 517.02,510.527 513.72,510.527L505.87,510.527ZM513.12,494.527C514.72,494.527 515.962,494.052 516.845,493.102C517.728,492.152 518.17,490.827 518.17,489.127L518.17,484.327C518.17,482.627 517.728,481.302 516.845,480.352C515.962,479.402 514.72,478.927 513.12,478.927C511.52,478.927 510.287,479.385 509.42,480.302C508.553,481.218 508.12,482.493 508.12,484.127L508.12,489.327C508.12,490.96 508.553,492.235 509.42,493.152C510.287,494.068 511.52,494.527 513.12,494.527Z" style="fill-rule:nonzero;"/>
            </g>
        </g>
    </g>
</svg>
