<?xml version="1.0" encoding="UTF-8" standalone="no"?>
<!DOCTYPE svg PUBLIC "-//W3C//DTD SVG 1.1//EN" "http://www.w3.org/Graphics/SVG/1.1/DTD/svg11.dtd">
<svg width="100%" height="100%" viewBox="0 0 667 303" version="1.1" xmlns="http://www.w3.org/2000/svg" xmlns:xlink="http://www.w3.org/1999/xlink" xml:space="preserve" xmlns:serif="http://www.serif.com/" style="fill-rule:evenodd;clip-rule:evenodd;stroke-linejoin:round;stroke-miterlimit:2;">
    <g transform="matrix(1,0,0,1,-746.752,-4608.61)">
        <g transform="matrix(7.86628,0,0,7.5708,-9862.44,3270.5)">
            <g transform="matrix(0.42792,0,0,0.444621,1176.72,-6.53756)">
                <path d="M402.12,467.212L401.87,415.027L409.52,415.027L419.67,444.527C419.57,443.46 419.47,442.202 419.37,440.752C419.27,439.302 419.178,437.827 419.095,436.327C419.012,434.827 418.97,433.493 418.97,432.327L418.97,415.027L424.67,415.027L424.67,451.527L417.02,451.527L406.97,422.027C407.037,422.993 407.12,424.16 407.22,425.527C407.32,426.893 407.403,428.293 407.47,429.727C407.537,431.16 407.57,432.477 407.57,433.677L407.82,467.212L402.12,467.212Z" style="fill-rule:nonzero;"/>
                <path d="M438.27,451.977C434.737,451.977 431.937,450.985 429.87,449.002C427.803,447.018 426.77,444.343 426.77,440.977L426.77,434.577C426.77,431.177 427.803,428.493 429.87,426.527C431.937,424.56 434.737,423.577 438.27,423.577C441.803,423.577 444.603,424.56 446.67,426.527C448.737,428.493 449.77,431.177 449.77,434.577L449.77,440.977C449.77,444.343 448.737,447.018 446.67,449.002C444.603,450.985 441.803,451.977 438.27,451.977ZM438.27,446.527C439.937,446.527 441.228,446.068 442.145,445.152C443.062,444.235 443.52,442.91 443.52,441.177L443.52,434.377C443.52,432.643 443.062,431.318 442.145,430.402C441.228,429.485 439.937,429.027 438.27,429.027C436.603,429.027 435.312,429.485 434.395,430.402C433.478,431.318 433.02,432.643 433.02,434.377L433.02,441.177C433.02,442.91 433.478,444.235 434.395,445.152C435.312,446.068 436.603,446.527 438.27,446.527Z" style="fill-rule:nonzero;"/>
                <path d="M466.02,451.527C463.453,451.527 461.412,450.785 459.895,449.302C458.378,447.818 457.62,445.81 457.62,443.277L457.62,429.677L450.02,429.677L450.02,424.027L457.62,424.027L457.62,416.277L463.92,416.277L463.92,424.027L474.87,424.027L474.87,429.677L463.92,429.677L463.92,443.127C463.92,443.927 464.145,444.585 464.595,445.102C465.045,445.618 465.67,445.877 466.47,445.877L474.62,445.877L474.62,451.527L466.02,451.527Z" style="fill-rule:nonzero;"/>
                <path d="M502.32,460.527L502.32,454.877L509.57,454.877C511.17,454.877 512.437,454.402 513.37,453.452C514.303,452.502 514.77,451.21 514.77,449.577L514.77,429.677L502.07,429.677L502.07,424.027L521.02,424.027L521.02,449.727C521.02,453.06 520.02,455.693 518.02,457.627C516.02,459.56 513.32,460.527 509.92,460.527L502.32,460.527ZM517.57,419.427C516.303,419.427 515.303,419.102 514.57,418.452C513.837,417.802 513.47,416.927 513.47,415.827C513.47,414.727 513.837,413.852 514.57,413.202C515.303,412.552 516.303,412.227 517.57,412.227C518.837,412.227 519.837,412.552 520.57,413.202C521.303,413.852 521.67,414.727 521.67,415.827C521.67,416.927 521.303,417.802 520.57,418.452C519.837,419.102 518.837,419.427 517.57,419.427Z" style="fill-rule:nonzero;"/>
                <path d="M538.27,452.027C534.77,452.027 532.02,451.052 530.02,449.102C528.02,447.152 527.02,444.493 527.02,441.127L527.02,424.027L533.27,424.027L533.27,441.077C533.27,442.81 533.703,444.16 534.57,445.127C535.437,446.093 536.67,446.577 538.27,446.577C539.837,446.577 541.062,446.093 541.945,445.127C542.828,444.16 543.27,442.81 543.27,441.077L543.27,424.027L549.52,424.027L549.52,441.127C549.52,444.493 548.503,447.152 546.47,449.102C544.437,451.052 541.703,452.027 538.27,452.027Z" style="fill-rule:nonzero;"/>
                <path d="M562.12,451.977C558.853,451.977 556.27,451.235 554.37,449.752C552.47,448.268 551.52,446.26 551.52,443.727L557.67,443.727C557.67,444.793 558.062,445.61 558.845,446.177C559.628,446.743 560.72,447.027 562.12,447.027L564.32,447.027C565.82,447.027 566.978,446.743 567.795,446.177C568.612,445.61 569.02,444.793 569.02,443.727C569.02,442.727 568.737,441.985 568.17,441.502C567.603,441.018 566.737,440.693 565.57,440.527L558.72,439.627C556.52,439.327 554.828,438.477 553.645,437.077C552.462,435.677 551.87,433.86 551.87,431.627C551.87,429.027 552.737,427.035 554.47,425.652C556.203,424.268 558.703,423.577 561.97,423.577L564.27,423.577C567.337,423.577 569.803,424.277 571.67,425.677C573.537,427.077 574.503,428.943 574.57,431.277L568.37,431.277C568.337,430.41 567.953,429.718 567.22,429.202C566.487,428.685 565.503,428.427 564.27,428.427L561.97,428.427C560.637,428.427 559.62,428.702 558.92,429.252C558.22,429.802 557.87,430.543 557.87,431.477C557.87,432.31 558.128,432.927 558.645,433.327C559.162,433.727 559.92,433.977 560.92,434.077L567.37,434.977C569.903,435.277 571.812,436.168 573.095,437.652C574.378,439.135 575.02,441.127 575.02,443.627C575.02,446.293 574.112,448.352 572.295,449.802C570.478,451.252 567.82,451.977 564.32,451.977L562.12,451.977Z" style="fill-rule:nonzero;"/>
                <path d="M591.02,451.527C588.453,451.527 586.412,450.785 584.895,449.302C583.378,447.818 582.62,445.81 582.62,443.277L582.62,429.677L575.02,429.677L575.02,424.027L582.62,424.027L582.62,416.277L588.92,416.277L588.92,424.027L599.87,424.027L599.87,429.677L588.92,429.677L588.92,443.127C588.92,443.927 589.145,444.585 589.595,445.102C590.045,445.618 590.67,445.877 591.47,445.877L599.62,445.877L599.62,451.527L591.02,451.527Z" style="fill-rule:nonzero;"/>
                <path d="M402.12,501.527L402.12,465.027L414.27,465.027C416.703,465.027 418.828,465.493 420.645,466.427C422.462,467.36 423.87,468.668 424.87,470.352C425.87,472.035 426.37,474.01 426.37,476.277C426.37,478.543 425.87,480.518 424.87,482.202C423.87,483.885 422.462,485.193 420.645,486.127C418.828,487.06 416.703,487.527 414.27,487.527L408.37,487.527L408.37,501.527L402.12,501.527ZM408.37,482.027L414.27,482.027C416.037,482.027 417.437,481.493 418.47,480.427C419.503,479.36 420.02,477.977 420.02,476.277C420.02,474.577 419.503,473.193 418.47,472.127C417.437,471.06 416.037,470.527 414.27,470.527L408.37,470.527L408.37,482.027Z" style="fill-rule:nonzero;"/>
                <path d="M427.07,501.527L427.07,495.877L436.47,495.877L436.47,479.677L428.07,479.677L428.07,474.027L442.72,474.027L442.72,495.877L451.17,495.877L451.17,501.527L427.07,501.527ZM439.17,469.427C437.903,469.427 436.903,469.102 436.17,468.452C435.437,467.802 435.07,466.927 435.07,465.827C435.07,464.727 435.437,463.852 436.17,463.202C436.903,462.552 437.903,462.227 439.17,462.227C440.437,462.227 441.437,462.552 442.17,463.202C442.903,463.852 443.27,464.727 443.27,465.827C443.27,466.927 442.903,467.802 442.17,468.452C441.437,469.102 440.437,469.427 439.17,469.427Z" style="fill-rule:nonzero;"/>
                <path d="M450.07,501.527L459.67,487.327L450.72,474.027L457.77,474.027L462.02,480.777C462.287,481.177 462.537,481.627 462.77,482.127C463.003,482.627 463.17,483.027 463.27,483.327C463.403,483.027 463.578,482.627 463.795,482.127C464.012,481.627 464.253,481.177 464.52,480.777L468.77,474.027L475.87,474.027L466.92,487.327L476.47,501.527L469.37,501.527L464.62,493.977C464.353,493.577 464.095,493.118 463.845,492.602C463.595,492.085 463.403,491.677 463.27,491.377C463.137,491.677 462.953,492.085 462.72,492.602C462.487,493.118 462.237,493.577 461.97,493.977L457.17,501.527L450.07,501.527Z" style="fill-rule:nonzero;"/>
                <path d="M488.32,502.027C485.987,502.027 483.953,501.577 482.22,500.677C480.487,499.777 479.145,498.502 478.195,496.852C477.245,495.202 476.77,493.26 476.77,491.027L476.77,484.527C476.77,482.293 477.245,480.352 478.195,478.702C479.145,477.052 480.487,475.777 482.22,474.877C483.953,473.977 485.987,473.527 488.32,473.527C490.62,473.527 492.628,473.977 494.345,474.877C496.062,475.777 497.395,477.035 498.345,478.652C499.295,480.268 499.77,482.16 499.77,484.327L499.77,489.327L482.77,489.327L482.77,491.227C482.77,493.093 483.253,494.502 484.22,495.452C485.187,496.402 486.553,496.877 488.32,496.877C489.62,496.877 490.728,496.652 491.645,496.202C492.562,495.752 493.103,495.093 493.27,494.227L499.47,494.227C499.037,496.593 497.803,498.485 495.77,499.902C493.737,501.318 491.253,502.027 488.32,502.027ZM482.77,484.327L482.77,485.277L493.77,485.227L493.77,484.277C493.77,482.377 493.303,480.91 492.37,479.877C491.437,478.843 490.087,478.327 488.32,478.327C486.487,478.327 485.103,478.852 484.17,479.902C483.237,480.952 482.77,482.427 482.77,484.327Z" style="fill-rule:nonzero;"/>
                <path d="M517.72,501.527C514.987,501.527 512.795,500.71 511.145,499.077C509.495,497.443 508.67,495.293 508.67,492.627L508.67,470.677L499.62,470.677L499.62,465.027L514.92,465.027L514.92,492.477C514.92,493.51 515.212,494.335 515.795,494.952C516.378,495.568 517.17,495.877 518.17,495.877L526.22,495.877L526.22,501.527L517.72,501.527Z" style="fill-rule:nonzero;"/>
                <path d="M537.12,501.977C533.853,501.977 531.27,501.235 529.37,499.752C527.47,498.268 526.52,496.26 526.52,493.727L532.67,493.727C532.67,494.793 533.062,495.61 533.845,496.177C534.628,496.743 535.72,497.027 537.12,497.027L539.32,497.027C540.82,497.027 541.978,496.743 542.795,496.177C543.612,495.61 544.02,494.793 544.02,493.727C544.02,492.727 543.737,491.985 543.17,491.502C542.603,491.018 541.737,490.693 540.57,490.527L533.72,489.627C531.52,489.327 529.828,488.477 528.645,487.077C527.462,485.677 526.87,483.86 526.87,481.627C526.87,479.027 527.737,477.035 529.47,475.652C531.203,474.268 533.703,473.577 536.97,473.577L539.27,473.577C542.337,473.577 544.803,474.277 546.67,475.677C548.537,477.077 549.503,478.943 549.57,481.277L543.37,481.277C543.337,480.41 542.953,479.718 542.22,479.202C541.487,478.685 540.503,478.427 539.27,478.427L536.97,478.427C535.637,478.427 534.62,478.702 533.92,479.252C533.22,479.802 532.87,480.543 532.87,481.477C532.87,482.31 533.128,482.927 533.645,483.327C534.162,483.727 534.92,483.977 535.92,484.077L542.37,484.977C544.903,485.277 546.812,486.168 548.095,487.652C549.378,489.135 550.02,491.127 550.02,493.627C550.02,496.293 549.112,498.352 547.295,499.802C545.478,501.252 542.82,501.977 539.32,501.977L537.12,501.977Z" style="fill-rule:nonzero;"/>
            </g>
        </g>
    </g>
</svg>
