<?xml version="1.0" encoding="UTF-8" standalone="no"?>
<!DOCTYPE svg PUBLIC "-//W3C//DTD SVG 1.1//EN" "http://www.w3.org/Graphics/SVG/1.1/DTD/svg11.dtd">
<svg width="100%" height="100%" viewBox="0 0 838 303" version="1.1" xmlns="http://www.w3.org/2000/svg" xmlns:xlink="http://www.w3.org/1999/xlink" xml:space="preserve" xmlns:serif="http://www.serif.com/" style="fill-rule:evenodd;clip-rule:evenodd;stroke-linejoin:round;stroke-miterlimit:2;">
    <g transform="matrix(1,0,0,1,-1941.98,-4608.61)">
        <g transform="matrix(7.86628,0,0,7.5708,-8588.69,3270.5)">
            <g transform="matrix(0.42792,0,0,0.444621,1188.46,-6.53756)">
                <path d="M363.42,452.027C360.953,452.027 358.795,451.593 356.945,450.727C355.095,449.86 353.662,448.618 352.645,447.002C351.628,445.385 351.12,443.46 351.12,441.227L357.27,441.227C357.27,442.86 357.828,444.16 358.945,445.127C360.062,446.093 361.553,446.577 363.42,446.577C365.22,446.577 366.645,446.102 367.695,445.152C368.745,444.202 369.27,442.927 369.27,441.327C369.27,440.127 368.928,439.068 368.245,438.152C367.562,437.235 366.587,436.61 365.32,436.277L360.42,435.027C357.787,434.36 355.703,433.11 354.17,431.277C352.637,429.443 351.87,427.26 351.87,424.727C351.87,421.627 352.887,419.152 354.92,417.302C356.953,415.452 359.67,414.527 363.07,414.527C365.37,414.527 367.378,414.943 369.095,415.777C370.812,416.61 372.137,417.785 373.07,419.302C374.003,420.818 374.47,422.593 374.47,424.627L368.37,424.627C368.37,423.227 367.887,422.093 366.92,421.227C365.953,420.36 364.67,419.927 363.07,419.927C361.503,419.927 360.262,420.352 359.345,421.202C358.428,422.052 357.97,423.16 357.97,424.527C357.97,425.66 358.295,426.593 358.945,427.327C359.595,428.06 360.503,428.593 361.67,428.927L366.72,430.177C369.42,430.843 371.545,432.177 373.095,434.177C374.645,436.177 375.42,438.56 375.42,441.327C375.42,443.493 374.928,445.377 373.945,446.977C372.962,448.577 371.57,449.818 369.77,450.702C367.97,451.585 365.853,452.027 363.42,452.027Z" style="fill-rule:nonzero;"/>
                <path d="M377.07,451.527L377.07,445.877L386.47,445.877L386.47,429.677L378.07,429.677L378.07,424.027L392.72,424.027L392.72,445.877L401.17,445.877L401.17,451.527L377.07,451.527ZM389.17,419.427C387.903,419.427 386.903,419.102 386.17,418.452C385.437,417.802 385.07,416.927 385.07,415.827C385.07,414.727 385.437,413.852 386.17,413.202C386.903,412.552 387.903,412.227 389.17,412.227C390.437,412.227 391.437,412.552 392.17,413.202C392.903,413.852 393.27,414.727 393.27,415.827C393.27,416.927 392.903,417.802 392.17,418.452C391.437,419.102 390.437,419.427 389.17,419.427Z" style="fill-rule:nonzero;"/>
                <path d="M417.72,451.527C414.987,451.527 412.795,450.71 411.145,449.077C409.495,447.443 408.67,445.293 408.67,442.627L408.67,420.677L399.62,420.677L399.62,415.027L414.92,415.027L414.92,442.477C414.92,443.51 415.212,444.335 415.795,444.952C416.378,445.568 417.17,445.877 418.17,445.877L426.22,445.877L426.22,451.527L417.72,451.527Z" style="fill-rule:nonzero;"/>
                <path d="M438.32,452.027C435.987,452.027 433.953,451.577 432.22,450.677C430.487,449.777 429.145,448.502 428.195,446.852C427.245,445.202 426.77,443.26 426.77,441.027L426.77,434.527C426.77,432.293 427.245,430.352 428.195,428.702C429.145,427.052 430.487,425.777 432.22,424.877C433.953,423.977 435.987,423.527 438.32,423.527C440.62,423.527 442.628,423.977 444.345,424.877C446.062,425.777 447.395,427.035 448.345,428.652C449.295,430.268 449.77,432.16 449.77,434.327L449.77,439.327L432.77,439.327L432.77,441.227C432.77,443.093 433.253,444.502 434.22,445.452C435.187,446.402 436.553,446.877 438.32,446.877C439.62,446.877 440.728,446.652 441.645,446.202C442.562,445.752 443.103,445.093 443.27,444.227L449.47,444.227C449.037,446.593 447.803,448.485 445.77,449.902C443.737,451.318 441.253,452.027 438.32,452.027ZM432.77,434.327L432.77,435.277L443.77,435.227L443.77,434.277C443.77,432.377 443.303,430.91 442.37,429.877C441.437,428.843 440.087,428.327 438.32,428.327C436.487,428.327 435.103,428.852 434.17,429.902C433.237,430.952 432.77,432.427 432.77,434.327Z" style="fill-rule:nonzero;"/>
                <path d="M452.12,451.527L452.12,424.027L458.22,424.027L458.22,429.177C458.553,427.443 459.37,426.068 460.67,425.052C461.97,424.035 463.62,423.527 465.62,423.527C468.32,423.527 470.478,424.427 472.095,426.227C473.712,428.027 474.52,430.443 474.52,433.477L474.42,466.731L468.17,466.731L468.27,434.227C468.27,432.527 467.828,431.218 466.945,430.302C466.062,429.385 464.87,428.927 463.37,428.927C461.803,428.927 460.578,429.393 459.695,430.327C458.812,431.26 458.37,432.593 458.37,434.327L458.37,451.527L452.12,451.527Z" style="fill-rule:nonzero;"/>
                <path d="M488.72,452.027C486.353,452.027 484.295,451.585 482.545,450.702C480.795,449.818 479.437,448.568 478.47,446.952C477.503,445.335 477.02,443.427 477.02,441.227L477.02,434.327C477.02,432.127 477.503,430.218 478.47,428.602C479.437,426.985 480.795,425.735 482.545,424.852C484.295,423.968 486.353,423.527 488.72,423.527C492.153,423.527 494.912,424.418 496.995,426.202C499.078,427.985 500.17,430.41 500.27,433.477L494.12,433.477C494.02,432.043 493.478,430.935 492.495,430.152C491.512,429.368 490.253,428.977 488.72,428.977C487.02,428.977 485.687,429.435 484.72,430.352C483.753,431.268 483.27,432.577 483.27,434.277L483.27,441.227C483.27,442.927 483.753,444.243 484.72,445.177C485.687,446.11 487.02,446.577 488.72,446.577C490.287,446.577 491.553,446.185 492.52,445.402C493.487,444.618 494.02,443.51 494.12,442.077L500.27,442.077C500.17,445.143 499.078,447.568 496.995,449.352C494.912,451.135 492.153,452.027 488.72,452.027Z" style="fill-rule:nonzero;"/>
                <path d="M513.32,452.027C510.987,452.027 508.953,451.577 507.22,450.677C505.487,449.777 504.145,448.502 503.195,446.852C502.245,445.202 501.77,443.26 501.77,441.027L501.77,434.527C501.77,432.293 502.245,430.352 503.195,428.702C504.145,427.052 505.487,425.777 507.22,424.877C508.953,423.977 510.987,423.527 513.32,423.527C515.62,423.527 517.628,423.977 519.345,424.877C521.062,425.777 522.395,427.035 523.345,428.652C524.295,430.268 524.77,432.16 524.77,434.327L524.77,439.327L507.77,439.327L507.77,441.227C507.77,443.093 508.253,444.502 509.22,445.452C510.187,446.402 511.553,446.877 513.32,446.877C514.62,446.877 515.728,446.652 516.645,446.202C517.562,445.752 518.103,445.093 518.27,444.227L524.47,444.227C524.037,446.593 522.803,448.485 520.77,449.902C518.737,451.318 516.253,452.027 513.32,452.027ZM507.77,434.327L507.77,435.277L518.77,435.227L518.77,434.277C518.77,432.377 518.303,430.91 517.37,429.877C516.437,428.843 515.087,428.327 513.32,428.327C511.487,428.327 510.103,428.852 509.17,429.902C508.237,430.952 507.77,432.427 507.77,434.327Z" style="fill-rule:nonzero;"/>
                <path d="M362.12,501.977C358.853,501.977 356.27,501.235 354.37,499.752C352.47,498.268 351.52,496.26 351.52,493.727L357.67,493.727C357.67,494.793 358.062,495.61 358.845,496.177C359.628,496.743 360.72,497.027 362.12,497.027L364.32,497.027C365.82,497.027 366.978,496.743 367.795,496.177C368.612,495.61 369.02,494.793 369.02,493.727C369.02,492.727 368.737,491.985 368.17,491.502C367.603,491.018 366.737,490.693 365.57,490.527L358.72,489.627C356.52,489.327 354.828,488.477 353.645,487.077C352.462,485.677 351.87,483.86 351.87,481.627C351.87,479.027 352.737,477.035 354.47,475.652C356.203,474.268 358.703,473.577 361.97,473.577L364.27,473.577C367.337,473.577 369.803,474.277 371.67,475.677C373.537,477.077 374.503,478.943 374.57,481.277L368.37,481.277C368.337,480.41 367.953,479.718 367.22,479.202C366.487,478.685 365.503,478.427 364.27,478.427L361.97,478.427C360.637,478.427 359.62,478.702 358.92,479.252C358.22,479.802 357.87,480.543 357.87,481.477C357.87,482.31 358.128,482.927 358.645,483.327C359.162,483.727 359.92,483.977 360.92,484.077L367.37,484.977C369.903,485.277 371.812,486.168 373.095,487.652C374.378,489.135 375.02,491.127 375.02,493.627C375.02,496.293 374.112,498.352 372.295,499.802C370.478,501.252 367.82,501.977 364.32,501.977L362.12,501.977Z" style="fill-rule:nonzero;"/>
                <path d="M391.02,501.527C388.453,501.527 386.412,500.785 384.895,499.302C383.378,497.818 382.62,495.81 382.62,493.277L382.62,479.677L375.02,479.677L375.02,474.027L382.62,474.027L382.62,466.277L388.92,466.277L388.92,474.027L399.87,474.027L399.87,479.677L388.92,479.677L388.92,493.127C388.92,493.927 389.145,494.585 389.595,495.102C390.045,495.618 390.67,495.877 391.47,495.877L399.62,495.877L399.62,501.527L391.02,501.527Z" style="fill-rule:nonzero;"/>
                <path d="M410.22,502.027C407.42,502.027 405.212,501.235 403.595,499.652C401.978,498.068 401.17,495.993 401.17,493.427C401.17,490.76 402.087,488.635 403.92,487.052C405.753,485.468 408.27,484.677 411.47,484.677L418.17,484.677L418.17,482.727C418.17,479.96 416.553,478.577 413.32,478.577C411.853,478.577 410.687,478.86 409.82,479.427C408.953,479.993 408.47,480.793 408.37,481.827L402.37,481.827C402.503,479.36 403.545,477.36 405.495,475.827C407.445,474.293 410.07,473.527 413.37,473.527C416.87,473.527 419.587,474.343 421.52,475.977C423.453,477.61 424.42,479.91 424.42,482.877L424.42,501.527L418.32,501.527L418.32,496.377C418.087,498.143 417.253,499.527 415.82,500.527C414.387,501.527 412.52,502.027 410.22,502.027ZM412.22,496.927C414.053,496.927 415.503,496.477 416.57,495.577C417.637,494.677 418.17,493.477 418.17,491.977L418.17,488.727L411.77,488.727C410.403,488.727 409.32,489.11 408.52,489.877C407.72,490.643 407.32,491.627 407.32,492.827C407.32,494.06 407.745,495.052 408.595,495.802C409.445,496.552 410.653,496.927 412.22,496.927Z" style="fill-rule:nonzero;"/>
                <path d="M427.12,501.527L427.12,474.027L433.22,474.027L433.22,479.177C433.553,477.443 434.37,476.068 435.67,475.052C436.97,474.035 438.62,473.527 440.62,473.527C443.32,473.527 445.478,474.427 447.095,476.227C448.712,478.027 449.52,480.443 449.52,483.477L449.52,501.527L443.27,501.527L443.27,484.227C443.27,482.527 442.828,481.218 441.945,480.302C441.062,479.385 439.87,478.927 438.37,478.927C436.803,478.927 435.578,479.393 434.695,480.327C433.812,481.26 433.37,482.593 433.37,484.327L433.37,501.527L427.12,501.527Z" style="fill-rule:nonzero;"/>
                <path d="M460.77,502.027C458.103,502.027 455.945,501.077 454.295,499.177C452.645,497.277 451.82,494.727 451.82,491.527L451.82,484.077C451.82,480.843 452.637,478.277 454.27,476.377C455.903,474.477 458.07,473.527 460.77,473.527C462.67,473.527 464.278,474.01 465.595,474.977C466.912,475.943 467.837,477.293 468.37,479.027L468.17,472.727L468.17,465.027L474.42,465.027L474.42,501.527L468.32,501.527L468.32,496.527C467.82,498.26 466.92,499.61 465.62,500.577C464.32,501.543 462.703,502.027 460.77,502.027ZM463.12,496.627C464.72,496.627 465.962,496.143 466.845,495.177C467.728,494.21 468.17,492.843 468.17,491.077L468.17,484.477C468.17,482.71 467.728,481.343 466.845,480.377C465.962,479.41 464.72,478.927 463.12,478.927C461.52,478.927 460.278,479.36 459.395,480.227C458.512,481.093 458.07,482.427 458.07,484.227L458.07,491.327C458.07,493.127 458.512,494.46 459.395,495.327C460.278,496.193 461.52,496.627 463.12,496.627Z" style="fill-rule:nonzero;"/>
                <path d="M487.12,501.977C483.853,501.977 481.27,501.235 479.37,499.752C477.47,498.268 476.52,496.26 476.52,493.727L482.67,493.727C482.67,494.793 483.062,495.61 483.845,496.177C484.628,496.743 485.72,497.027 487.12,497.027L489.32,497.027C490.82,497.027 491.978,496.743 492.795,496.177C493.612,495.61 494.02,494.793 494.02,493.727C494.02,492.727 493.737,491.985 493.17,491.502C492.603,491.018 491.737,490.693 490.57,490.527L483.72,489.627C481.52,489.327 479.828,488.477 478.645,487.077C477.462,485.677 476.87,483.86 476.87,481.627C476.87,479.027 477.737,477.035 479.47,475.652C481.203,474.268 483.703,473.577 486.97,473.577L489.27,473.577C492.337,473.577 494.803,474.277 496.67,475.677C498.537,477.077 499.503,478.943 499.57,481.277L493.37,481.277C493.337,480.41 492.953,479.718 492.22,479.202C491.487,478.685 490.503,478.427 489.27,478.427L486.97,478.427C485.637,478.427 484.62,478.702 483.92,479.252C483.22,479.802 482.87,480.543 482.87,481.477C482.87,482.31 483.128,482.927 483.645,483.327C484.162,483.727 484.92,483.977 485.92,484.077L492.37,484.977C494.903,485.277 496.812,486.168 498.095,487.652C499.378,489.135 500.02,491.127 500.02,493.627C500.02,496.293 499.112,498.352 497.295,499.802C495.478,501.252 492.82,501.977 489.32,501.977L487.12,501.977Z" style="fill-rule:nonzero;"/>
                <path d="M538.27,501.977C534.737,501.977 531.937,500.985 529.87,499.002C527.803,497.018 526.77,494.343 526.77,490.977L526.77,484.577C526.77,481.177 527.803,478.493 529.87,476.527C531.937,474.56 534.737,473.577 538.27,473.577C541.803,473.577 544.603,474.56 546.67,476.527C548.737,478.493 549.77,481.177 549.77,484.577L549.77,490.977C549.77,494.343 548.737,497.018 546.67,499.002C544.603,500.985 541.803,501.977 538.27,501.977ZM538.27,496.527C539.937,496.527 541.228,496.068 542.145,495.152C543.062,494.235 543.52,492.91 543.52,491.177L543.52,484.377C543.52,482.643 543.062,481.318 542.145,480.402C541.228,479.485 539.937,479.027 538.27,479.027C536.603,479.027 535.312,479.485 534.395,480.402C533.478,481.318 533.02,482.643 533.02,484.377L533.02,491.177C533.02,492.91 533.478,494.235 534.395,495.152C535.312,496.068 536.603,496.527 538.27,496.527Z" style="fill-rule:nonzero;"/>
                <path d="M563.27,502.027C559.77,502.027 557.02,501.052 555.02,499.102C553.02,497.152 552.02,494.493 552.02,491.127L552.02,474.027L558.27,474.027L558.27,491.077C558.27,492.81 558.703,494.16 559.57,495.127C560.437,496.093 561.67,496.577 563.27,496.577C564.837,496.577 566.062,496.093 566.945,495.127C567.828,494.16 568.27,492.81 568.27,491.077L568.27,474.027L574.52,474.027L574.52,491.127C574.52,494.493 573.503,497.152 571.47,499.102C569.437,501.052 566.703,502.027 563.27,502.027Z" style="fill-rule:nonzero;"/>
                <path d="M591.02,501.527C588.453,501.527 586.412,500.785 584.895,499.302C583.378,497.818 582.62,495.81 582.62,493.277L582.62,479.677L575.02,479.677L575.02,474.027L582.62,474.027L582.62,466.277L588.92,466.277L588.92,474.027L599.87,474.027L599.87,479.677L588.92,479.677L588.92,493.127C588.92,493.927 589.145,494.585 589.595,495.102C590.045,495.618 590.67,495.877 591.47,495.877L599.62,495.877L599.62,501.527L591.02,501.527Z" style="fill-rule:nonzero;"/>
            </g>
        </g>
    </g>
</svg>
