<?xml version="1.0" encoding="UTF-8" standalone="no"?>
<!DOCTYPE svg PUBLIC "-//W3C//DTD SVG 1.1//EN" "http://www.w3.org/Graphics/SVG/1.1/DTD/svg11.dtd">
<svg width="100%" height="100%" viewBox="0 0 1013 331" version="1.1" xmlns="http://www.w3.org/2000/svg" xmlns:xlink="http://www.w3.org/1999/xlink" xml:space="preserve" xmlns:serif="http://www.serif.com/" style="fill-rule:evenodd;clip-rule:evenodd;stroke-linejoin:round;stroke-miterlimit:2;">
    <g transform="matrix(1,0,0,1,-1847.31,-3011.67)">
        <g transform="matrix(7.86628,0,0,7.5708,-8588.69,1687.86)">
            <g transform="matrix(0.42792,0,0,0.444621,1188.04,-8.4272)">
                <path d="M327.77,451.527L323.97,415.027L329.17,415.027L331.47,440.527C331.537,441.393 331.612,442.502 331.695,443.852C331.778,445.202 331.82,446.343 331.82,447.277C331.92,446.343 332.028,445.202 332.145,443.852C332.262,442.502 332.37,441.393 332.47,440.527L335.67,415.027L341.02,415.027L344.02,440.527C344.12,441.393 344.245,442.502 344.395,443.852C344.545,445.202 344.67,446.343 344.77,447.277C344.803,446.343 344.862,445.202 344.945,443.852C345.028,442.502 345.103,441.393 345.17,440.527L347.42,415.027L352.57,415.027L348.57,451.527L341.67,451.527L338.87,425.927C338.77,424.96 338.67,423.785 338.57,422.402C338.47,421.018 338.387,419.877 338.32,418.977C338.253,419.877 338.17,421.018 338.07,422.402C337.97,423.785 337.87,424.96 337.77,425.927L334.72,451.527L327.77,451.527Z" style="fill-rule:nonzero;"/>
                <path d="M363.32,452.027C360.987,452.027 358.953,451.577 357.22,450.677C355.487,449.777 354.145,448.502 353.195,446.852C352.245,445.202 351.77,443.26 351.77,441.027L351.77,434.527C351.77,432.293 352.245,430.352 353.195,428.702C354.145,427.052 355.487,425.777 357.22,424.877C358.953,423.977 360.987,423.527 363.32,423.527C365.62,423.527 367.628,423.977 369.345,424.877C371.062,425.777 372.395,427.035 373.345,428.652C374.295,430.268 374.77,432.16 374.77,434.327L374.77,439.327L357.77,439.327L357.77,441.227C357.77,443.093 358.253,444.502 359.22,445.452C360.187,446.402 361.553,446.877 363.32,446.877C364.62,446.877 365.728,446.652 366.645,446.202C367.562,445.752 368.103,445.093 368.27,444.227L374.47,444.227C374.037,446.593 372.803,448.485 370.77,449.902C368.737,451.318 366.253,452.027 363.32,452.027ZM357.77,434.327L357.77,435.277L368.77,435.227L368.77,434.277C368.77,432.377 368.303,430.91 367.37,429.877C366.437,428.843 365.087,428.327 363.32,428.327C361.487,428.327 360.103,428.852 359.17,429.902C358.237,430.952 357.77,432.427 357.77,434.327Z" style="fill-rule:nonzero;"/>
                <path d="M390.77,452.027C388.837,452.027 387.22,451.543 385.92,450.577C384.62,449.61 383.72,448.26 383.22,446.527L383.22,451.527L377.12,451.527L377.12,415.027L383.37,415.027L383.37,422.727L383.17,429.027C383.703,427.293 384.628,425.943 385.945,424.977C387.262,424.01 388.87,423.527 390.77,423.527C393.47,423.527 395.637,424.477 397.27,426.377C398.903,428.277 399.72,430.843 399.72,434.077L399.72,441.527C399.72,444.727 398.895,447.277 397.245,449.177C395.595,451.077 393.437,452.027 390.77,452.027ZM388.42,446.627C390.02,446.627 391.262,446.193 392.145,445.327C393.028,444.46 393.47,443.127 393.47,441.327L393.47,434.227C393.47,432.427 393.028,431.093 392.145,430.227C391.262,429.36 390.02,428.927 388.42,428.927C386.82,428.927 385.578,429.41 384.695,430.377C383.812,431.343 383.37,432.71 383.37,434.477L383.37,441.077C383.37,442.843 383.812,444.21 384.695,445.177C385.578,446.143 386.82,446.627 388.42,446.627Z" style="fill-rule:nonzero;"/>
                <path d="M412.12,451.977C408.853,451.977 406.27,451.235 404.37,449.752C402.47,448.268 401.52,446.26 401.52,443.727L407.67,443.727C407.67,444.793 408.062,445.61 408.845,446.177C409.628,446.743 410.72,447.027 412.12,447.027L414.32,447.027C415.82,447.027 416.978,446.743 417.795,446.177C418.612,445.61 419.02,444.793 419.02,443.727C419.02,442.727 418.737,441.985 418.17,441.502C417.603,441.018 416.737,440.693 415.57,440.527L408.72,439.627C406.52,439.327 404.828,438.477 403.645,437.077C402.462,435.677 401.87,433.86 401.87,431.627C401.87,429.027 402.737,427.035 404.47,425.652C406.203,424.268 408.703,423.577 411.97,423.577L414.27,423.577C417.337,423.577 419.803,424.277 421.67,425.677C423.537,427.077 424.503,428.943 424.57,431.277L418.37,431.277C418.337,430.41 417.953,429.718 417.22,429.202C416.487,428.685 415.503,428.427 414.27,428.427L411.97,428.427C410.637,428.427 409.62,428.702 408.92,429.252C408.22,429.802 407.87,430.543 407.87,431.477C407.87,432.31 408.128,432.927 408.645,433.327C409.162,433.727 409.92,433.977 410.92,434.077L417.37,434.977C419.903,435.277 421.812,436.168 423.095,437.652C424.378,439.135 425.02,441.127 425.02,443.627C425.02,446.293 424.112,448.352 422.295,449.802C420.478,451.252 417.82,451.977 414.32,451.977L412.12,451.977Z" style="fill-rule:nonzero;"/>
                <path d="M427.07,451.527L427.07,445.877L436.47,445.877L436.47,429.677L428.07,429.677L428.07,424.027L442.72,424.027L442.72,445.877L451.17,445.877L451.17,451.527L427.07,451.527ZM439.17,419.427C437.903,419.427 436.903,419.102 436.17,418.452C435.437,417.802 435.07,416.927 435.07,415.827C435.07,414.727 435.437,413.852 436.17,413.202C436.903,412.552 437.903,412.227 439.17,412.227C440.437,412.227 441.437,412.552 442.17,413.202C442.903,413.852 443.27,414.727 443.27,415.827C443.27,416.927 442.903,417.802 442.17,418.452C441.437,419.102 440.437,419.427 439.17,419.427Z" style="fill-rule:nonzero;"/>
                <path d="M466.02,451.527C463.453,451.527 461.412,450.785 459.895,449.302C458.378,447.818 457.62,445.81 457.62,443.277L457.62,429.677L450.02,429.677L450.02,424.027L457.62,424.027L457.62,416.277L463.92,416.277L463.92,424.027L474.87,424.027L474.87,429.677L463.92,429.677L463.92,443.127C463.92,443.927 464.145,444.585 464.595,445.102C465.045,445.618 465.67,445.877 466.47,445.877L474.62,445.877L474.62,451.527L466.02,451.527Z" style="fill-rule:nonzero;"/>
                <path d="M488.32,452.027C485.987,452.027 483.953,451.577 482.22,450.677C480.487,449.777 479.145,448.502 478.195,446.852C477.245,445.202 476.77,443.26 476.77,441.027L476.77,434.527C476.77,432.293 477.245,430.352 478.195,428.702C479.145,427.052 480.487,425.777 482.22,424.877C483.953,423.977 485.987,423.527 488.32,423.527C490.62,423.527 492.628,423.977 494.345,424.877C496.062,425.777 497.395,427.035 498.345,428.652C499.295,430.268 499.77,432.16 499.77,434.327L499.77,439.327L482.77,439.327L482.77,441.227C482.77,443.093 483.253,444.502 484.22,445.452C485.187,446.402 486.553,446.877 488.32,446.877C489.62,446.877 490.728,446.652 491.645,446.202C492.562,445.752 493.103,445.093 493.27,444.227L499.47,444.227C499.037,446.593 497.803,448.485 495.77,449.902C493.737,451.318 491.253,452.027 488.32,452.027ZM482.77,434.327L482.77,435.277L493.77,435.227L493.77,434.277C493.77,432.377 493.303,430.91 492.37,429.877C491.437,428.843 490.087,428.327 488.32,428.327C486.487,428.327 485.103,428.852 484.17,429.902C483.237,430.952 482.77,432.427 482.77,434.327Z" style="fill-rule:nonzero;"/>
                <path d="M327.02,501.527L327.02,465.027L337.87,465.027C340.337,465.027 342.478,465.502 344.295,466.452C346.112,467.402 347.52,468.727 348.52,470.427C349.52,472.127 350.02,474.127 350.02,476.427L350.02,490.077C350.02,492.377 349.52,494.385 348.52,496.102C347.52,497.818 346.112,499.152 344.295,500.102C342.478,501.052 340.337,501.527 337.87,501.527L327.02,501.527ZM333.27,495.927L337.87,495.927C339.67,495.927 341.103,495.402 342.17,494.352C343.237,493.302 343.77,491.877 343.77,490.077L343.77,476.427C343.77,474.66 343.237,473.252 342.17,472.202C341.103,471.152 339.67,470.627 337.87,470.627L333.27,470.627L333.27,495.927Z" style="fill-rule:nonzero;"/>
                <path d="M363.32,502.027C360.987,502.027 358.953,501.577 357.22,500.677C355.487,499.777 354.145,498.502 353.195,496.852C352.245,495.202 351.77,493.26 351.77,491.027L351.77,484.527C351.77,482.293 352.245,480.352 353.195,478.702C354.145,477.052 355.487,475.777 357.22,474.877C358.953,473.977 360.987,473.527 363.32,473.527C365.62,473.527 367.628,473.977 369.345,474.877C371.062,475.777 372.395,477.035 373.345,478.652C374.295,480.268 374.77,482.16 374.77,484.327L374.77,489.327L357.77,489.327L357.77,491.227C357.77,493.093 358.253,494.502 359.22,495.452C360.187,496.402 361.553,496.877 363.32,496.877C364.62,496.877 365.728,496.652 366.645,496.202C367.562,495.752 368.103,495.093 368.27,494.227L374.47,494.227C374.037,496.593 372.803,498.485 370.77,499.902C368.737,501.318 366.253,502.027 363.32,502.027ZM357.77,484.327L357.77,485.277L368.77,485.227L368.77,484.277C368.77,482.377 368.303,480.91 367.37,479.877C366.437,478.843 365.087,478.327 363.32,478.327C361.487,478.327 360.103,478.852 359.17,479.902C358.237,480.952 357.77,482.427 357.77,484.327Z" style="fill-rule:nonzero;"/>
                <path d="M384.32,501.527L375.07,474.027L381.62,474.027L386.92,490.727C387.253,491.727 387.545,492.735 387.795,493.752C388.045,494.768 388.22,495.643 388.32,496.377C388.453,495.643 388.628,494.768 388.845,493.752C389.062,492.735 389.32,491.743 389.62,490.777L394.87,474.027L401.47,474.027L392.27,501.527L384.32,501.527Z" style="fill-rule:nonzero;"/>
                <path d="M413.32,502.027C410.987,502.027 408.953,501.577 407.22,500.677C405.487,499.777 404.145,498.502 403.195,496.852C402.245,495.202 401.77,493.26 401.77,491.027L401.77,484.527C401.77,482.293 402.245,480.352 403.195,478.702C404.145,477.052 405.487,475.777 407.22,474.877C408.953,473.977 410.987,473.527 413.32,473.527C415.62,473.527 417.628,473.977 419.345,474.877C421.062,475.777 422.395,477.035 423.345,478.652C424.295,480.268 424.77,482.16 424.77,484.327L424.77,489.327L407.77,489.327L407.77,491.227C407.77,493.093 408.253,494.502 409.22,495.452C410.187,496.402 411.553,496.877 413.32,496.877C414.62,496.877 415.728,496.652 416.645,496.202C417.562,495.752 418.103,495.093 418.27,494.227L424.47,494.227C424.037,496.593 422.803,498.485 420.77,499.902C418.737,501.318 416.253,502.027 413.32,502.027ZM407.77,484.327L407.77,485.277L418.77,485.227L418.77,484.277C418.77,482.377 418.303,480.91 417.37,479.877C416.437,478.843 415.087,478.327 413.32,478.327C411.487,478.327 410.103,478.852 409.17,479.902C408.237,480.952 407.77,482.427 407.77,484.327Z" style="fill-rule:nonzero;"/>
                <path d="M442.72,501.527C439.987,501.527 437.795,500.71 436.145,499.077C434.495,497.443 433.67,495.293 433.67,492.627L433.67,470.677L427.07,470.677L427.07,465.027L439.92,465.027L439.92,492.477C439.92,493.51 440.212,494.335 440.795,494.952C441.378,495.568 442.17,495.877 443.17,495.877L451.22,495.877L451.22,501.527L442.72,501.527Z" style="fill-rule:nonzero;"/>
                <path d="M463.27,501.977C459.737,501.977 456.937,500.985 454.87,499.002C452.803,497.018 451.77,494.343 451.77,490.977L451.77,484.577C451.77,481.177 452.803,478.493 454.87,476.527C456.937,474.56 459.737,473.577 463.27,473.577C466.803,473.577 469.603,474.56 471.67,476.527C473.737,478.493 474.77,481.177 474.77,484.577L474.77,490.977C474.77,494.343 473.737,497.018 471.67,499.002C469.603,500.985 466.803,501.977 463.27,501.977ZM463.27,496.527C464.937,496.527 466.228,496.068 467.145,495.152C468.062,494.235 468.52,492.91 468.52,491.177L468.52,484.377C468.52,482.643 468.062,481.318 467.145,480.402C466.228,479.485 464.937,479.027 463.27,479.027C461.603,479.027 460.312,479.485 459.395,480.402C458.478,481.318 458.02,482.643 458.02,484.377L458.02,491.177C458.02,492.91 458.478,494.235 459.395,495.152C460.312,496.068 461.603,496.527 463.27,496.527Z" style="fill-rule:nonzero;"/>
                <path d="M477.12,510.527L477.12,474.027L483.22,474.027L483.22,479.077C483.72,477.343 484.62,475.985 485.92,475.002C487.22,474.018 488.837,473.527 490.77,473.527C492.537,473.527 494.095,473.96 495.445,474.827C496.795,475.693 497.845,476.918 498.595,478.502C499.345,480.085 499.72,481.927 499.72,484.027L499.72,491.477C499.72,494.643 498.903,497.193 497.27,499.127C495.637,501.06 493.47,502.027 490.77,502.027C488.837,502.027 487.212,501.527 485.895,500.527C484.578,499.527 483.67,498.127 483.17,496.327L483.37,502.827L483.37,510.527L477.12,510.527ZM488.42,496.627C490.02,496.627 491.262,496.193 492.145,495.327C493.028,494.46 493.47,493.127 493.47,491.327L493.47,484.227C493.47,482.427 493.028,481.093 492.145,480.227C491.262,479.36 490.02,478.927 488.42,478.927C486.82,478.927 485.578,479.41 484.695,480.377C483.812,481.343 483.37,482.71 483.37,484.477L483.37,491.077C483.37,492.843 483.812,494.21 484.695,495.177C485.578,496.143 486.82,496.627 488.42,496.627Z" style="fill-rule:nonzero;"/>
                <path d="M513.32,502.027C510.987,502.027 508.953,501.577 507.22,500.677C505.487,499.777 504.145,498.502 503.195,496.852C502.245,495.202 501.77,493.26 501.77,491.027L501.77,484.527C501.77,482.293 502.245,480.352 503.195,478.702C504.145,477.052 505.487,475.777 507.22,474.877C508.953,473.977 510.987,473.527 513.32,473.527C515.62,473.527 517.628,473.977 519.345,474.877C521.062,475.777 522.395,477.035 523.345,478.652C524.295,480.268 524.77,482.16 524.77,484.327L524.77,489.327L507.77,489.327L507.77,491.227C507.77,493.093 508.253,494.502 509.22,495.452C510.187,496.402 511.553,496.877 513.32,496.877C514.62,496.877 515.728,496.652 516.645,496.202C517.562,495.752 518.103,495.093 518.27,494.227L524.47,494.227C524.037,496.593 522.803,498.485 520.77,499.902C518.737,501.318 516.253,502.027 513.32,502.027ZM507.77,484.327L507.77,485.277L518.77,485.227L518.77,484.277C518.77,482.377 518.303,480.91 517.37,479.877C516.437,478.843 515.087,478.327 513.32,478.327C511.487,478.327 510.103,478.852 509.17,479.902C508.237,480.952 507.77,482.427 507.77,484.327Z" style="fill-rule:nonzero;"/>
                <path d="M525.62,501.527L525.62,474.027L530.82,474.027L530.82,478.027L530.97,478.027C531.07,476.693 531.537,475.61 532.37,474.777C533.203,473.943 534.253,473.527 535.52,473.527C536.753,473.527 537.803,473.918 538.67,474.702C539.537,475.485 540.12,476.543 540.42,477.877C540.553,476.543 541.045,475.485 541.895,474.702C542.745,473.918 543.82,473.527 545.12,473.527C546.787,473.527 548.17,474.185 549.27,475.502C550.37,476.818 550.92,478.51 550.92,480.577L550.92,501.527L545.42,501.527L545.42,481.027C545.42,480.127 545.212,479.418 544.795,478.902C544.378,478.385 543.787,478.127 543.02,478.127C541.52,478.127 540.77,479.093 540.77,481.027L540.77,501.527L535.77,501.527L535.77,481.027C535.77,480.127 535.578,479.418 535.195,478.902C534.812,478.385 534.253,478.127 533.52,478.127C531.92,478.127 531.12,479.093 531.12,481.027L531.12,501.527L525.62,501.527Z" style="fill-rule:nonzero;"/>
                <path d="M563.32,502.027C560.987,502.027 558.953,501.577 557.22,500.677C555.487,499.777 554.145,498.502 553.195,496.852C552.245,495.202 551.77,493.26 551.77,491.027L551.77,484.527C551.77,482.293 552.245,480.352 553.195,478.702C554.145,477.052 555.487,475.777 557.22,474.877C558.953,473.977 560.987,473.527 563.32,473.527C565.62,473.527 567.628,473.977 569.345,474.877C571.062,475.777 572.395,477.035 573.345,478.652C574.295,480.268 574.77,482.16 574.77,484.327L574.77,489.327L557.77,489.327L557.77,491.227C557.77,493.093 558.253,494.502 559.22,495.452C560.187,496.402 561.553,496.877 563.32,496.877C564.62,496.877 565.728,496.652 566.645,496.202C567.562,495.752 568.103,495.093 568.27,494.227L574.47,494.227C574.037,496.593 572.803,498.485 570.77,499.902C568.737,501.318 566.253,502.027 563.32,502.027ZM557.77,484.327L557.77,485.277L568.77,485.227L568.77,484.277C568.77,482.377 568.303,480.91 567.37,479.877C566.437,478.843 565.087,478.327 563.32,478.327C561.487,478.327 560.103,478.852 559.17,479.902C558.237,480.952 557.77,482.427 557.77,484.327Z" style="fill-rule:nonzero;"/>
                <path d="M577.12,501.527L577.12,474.027L583.22,474.027L583.22,479.177C583.553,477.443 584.37,476.068 585.67,475.052C586.97,474.035 588.62,473.527 590.62,473.527C593.32,473.527 595.478,474.427 597.095,476.227C598.712,478.027 599.52,480.443 599.52,483.477L599.52,501.527L593.27,501.527L593.27,484.227C593.27,482.527 592.828,481.218 591.945,480.302C591.062,479.385 589.87,478.927 588.37,478.927C586.803,478.927 585.578,479.393 584.695,480.327C583.812,481.26 583.37,482.593 583.37,484.327L583.37,501.527L577.12,501.527Z" style="fill-rule:nonzero;"/>
                <path d="M616.02,501.527C613.453,501.527 611.412,500.785 609.895,499.302C608.378,497.818 607.62,495.81 607.62,493.277L607.62,479.677L600.02,479.677L600.02,474.027L607.62,474.027L607.62,466.277L613.92,466.277L613.92,474.027L624.87,474.027L624.87,479.677L613.92,479.677L613.92,493.127C613.92,493.927 614.145,494.585 614.595,495.102C615.045,495.618 615.67,495.877 616.47,495.877L624.62,495.877L624.62,501.527L616.02,501.527Z" style="fill-rule:nonzero;"/>
            </g>
        </g>
    </g>
</svg>
