<?xml version="1.0" encoding="UTF-8" standalone="no"?>
<!DOCTYPE svg PUBLIC "-//W3C//DTD SVG 1.1//EN" "http://www.w3.org/Graphics/SVG/1.1/DTD/svg11.dtd">
<svg width="100%" height="100%" viewBox="0 0 1012 303" version="1.1" xmlns="http://www.w3.org/2000/svg" xmlns:xlink="http://www.w3.org/1999/xlink" xml:space="preserve" xmlns:serif="http://www.serif.com/" style="fill-rule:evenodd;clip-rule:evenodd;stroke-linejoin:round;stroke-miterlimit:2;">
    <g transform="matrix(1,0,0,1,-3075.73,-3025.98)">
        <g transform="matrix(7.86628,0,0,7.5708,-7360.86,1687.86)">
            <g transform="matrix(0.42792,0,0,0.444621,1188.12,-6.53756)">
                <path d="M327.77,451.527L323.97,415.027L329.17,415.027L331.47,440.527C331.537,441.393 331.612,442.502 331.695,443.852C331.778,445.202 331.82,446.343 331.82,447.277C331.92,446.343 332.028,445.202 332.145,443.852C332.262,442.502 332.37,441.393 332.47,440.527L335.67,415.027L341.02,415.027L344.02,440.527C344.12,441.393 344.245,442.502 344.395,443.852C344.545,445.202 344.67,446.343 344.77,447.277C344.803,446.343 344.862,445.202 344.945,443.852C345.028,442.502 345.103,441.393 345.17,440.527L347.42,415.027L352.57,415.027L348.57,451.527L341.67,451.527L338.87,425.927C338.77,424.96 338.67,423.785 338.57,422.402C338.47,421.018 338.387,419.877 338.32,418.977C338.253,419.877 338.17,421.018 338.07,422.402C337.97,423.785 337.87,424.96 337.77,425.927L334.72,451.527L327.77,451.527Z" style="fill-rule:nonzero;"/>
                <path d="M363.32,452.027C360.987,452.027 358.953,451.577 357.22,450.677C355.487,449.777 354.145,448.502 353.195,446.852C352.245,445.202 351.77,443.26 351.77,441.027L351.77,434.527C351.77,432.293 352.245,430.352 353.195,428.702C354.145,427.052 355.487,425.777 357.22,424.877C358.953,423.977 360.987,423.527 363.32,423.527C365.62,423.527 367.628,423.977 369.345,424.877C371.062,425.777 372.395,427.035 373.345,428.652C374.295,430.268 374.77,432.16 374.77,434.327L374.77,439.327L357.77,439.327L357.77,441.227C357.77,443.093 358.253,444.502 359.22,445.452C360.187,446.402 361.553,446.877 363.32,446.877C364.62,446.877 365.728,446.652 366.645,446.202C367.562,445.752 368.103,445.093 368.27,444.227L374.47,444.227C374.037,446.593 372.803,448.485 370.77,449.902C368.737,451.318 366.253,452.027 363.32,452.027ZM357.77,434.327L357.77,435.277L368.77,435.227L368.77,434.277C368.77,432.377 368.303,430.91 367.37,429.877C366.437,428.843 365.087,428.327 363.32,428.327C361.487,428.327 360.103,428.852 359.17,429.902C358.237,430.952 357.77,432.427 357.77,434.327Z" style="fill-rule:nonzero;"/>
                <path d="M390.77,452.027C388.837,452.027 387.22,451.543 385.92,450.577C384.62,449.61 383.72,448.26 383.22,446.527L383.22,451.527L377.12,451.527L377.12,415.027L383.37,415.027L383.37,422.727L383.17,429.027C383.703,427.293 384.628,425.943 385.945,424.977C387.262,424.01 388.87,423.527 390.77,423.527C393.47,423.527 395.637,424.477 397.27,426.377C398.903,428.277 399.72,430.843 399.72,434.077L399.72,441.527C399.72,444.727 398.895,447.277 397.245,449.177C395.595,451.077 393.437,452.027 390.77,452.027ZM388.42,446.627C390.02,446.627 391.262,446.193 392.145,445.327C393.028,444.46 393.47,443.127 393.47,441.327L393.47,434.227C393.47,432.427 393.028,431.093 392.145,430.227C391.262,429.36 390.02,428.927 388.42,428.927C386.82,428.927 385.578,429.41 384.695,430.377C383.812,431.343 383.37,432.71 383.37,434.477L383.37,441.077C383.37,442.843 383.812,444.21 384.695,445.177C385.578,446.143 386.82,446.627 388.42,446.627Z" style="fill-rule:nonzero;"/>
                <path d="M412.12,451.977C408.853,451.977 406.27,451.235 404.37,449.752C402.47,448.268 401.52,446.26 401.52,443.727L407.67,443.727C407.67,444.793 408.062,445.61 408.845,446.177C409.628,446.743 410.72,447.027 412.12,447.027L414.32,447.027C415.82,447.027 416.978,446.743 417.795,446.177C418.612,445.61 419.02,444.793 419.02,443.727C419.02,442.727 418.737,441.985 418.17,441.502C417.603,441.018 416.737,440.693 415.57,440.527L408.72,439.627C406.52,439.327 404.828,438.477 403.645,437.077C402.462,435.677 401.87,433.86 401.87,431.627C401.87,429.027 402.737,427.035 404.47,425.652C406.203,424.268 408.703,423.577 411.97,423.577L414.27,423.577C417.337,423.577 419.803,424.277 421.67,425.677C423.537,427.077 424.503,428.943 424.57,431.277L418.37,431.277C418.337,430.41 417.953,429.718 417.22,429.202C416.487,428.685 415.503,428.427 414.27,428.427L411.97,428.427C410.637,428.427 409.62,428.702 408.92,429.252C408.22,429.802 407.87,430.543 407.87,431.477C407.87,432.31 408.128,432.927 408.645,433.327C409.162,433.727 409.92,433.977 410.92,434.077L417.37,434.977C419.903,435.277 421.812,436.168 423.095,437.652C424.378,439.135 425.02,441.127 425.02,443.627C425.02,446.293 424.112,448.352 422.295,449.802C420.478,451.252 417.82,451.977 414.32,451.977L412.12,451.977Z" style="fill-rule:nonzero;"/>
                <path d="M427.07,451.527L427.07,445.877L436.47,445.877L436.47,429.677L428.07,429.677L428.07,424.027L442.72,424.027L442.72,445.877L451.17,445.877L451.17,451.527L427.07,451.527ZM439.17,419.427C437.903,419.427 436.903,419.102 436.17,418.452C435.437,417.802 435.07,416.927 435.07,415.827C435.07,414.727 435.437,413.852 436.17,413.202C436.903,412.552 437.903,412.227 439.17,412.227C440.437,412.227 441.437,412.552 442.17,413.202C442.903,413.852 443.27,414.727 443.27,415.827C443.27,416.927 442.903,417.802 442.17,418.452C441.437,419.102 440.437,419.427 439.17,419.427Z" style="fill-rule:nonzero;"/>
                <path d="M488.32,452.027C485.987,452.027 483.953,451.577 482.22,450.677C480.487,449.777 479.145,448.502 478.195,446.852C477.245,445.202 476.77,443.26 476.77,441.027L476.77,434.527C476.77,432.293 477.245,430.352 478.195,428.702C479.145,427.052 480.487,425.777 482.22,424.877C483.953,423.977 485.987,423.527 488.32,423.527C490.62,423.527 492.628,423.977 494.345,424.877C496.062,425.777 497.395,427.035 498.345,428.652C499.295,430.268 499.77,432.16 499.77,434.327L499.77,439.327L482.77,439.327L482.77,441.227C482.77,443.093 483.253,444.502 484.22,445.452C485.187,446.402 486.553,446.877 488.32,446.877C489.62,446.877 490.728,446.652 491.645,446.202C492.562,445.752 493.103,445.093 493.27,444.227L499.47,444.227C499.037,446.593 497.803,448.485 495.77,449.902C493.737,451.318 491.253,452.027 488.32,452.027ZM482.77,434.327L482.77,435.277L493.77,435.227L493.77,434.277C493.77,432.377 493.303,430.91 492.37,429.877C491.437,428.843 490.087,428.327 488.32,428.327C486.487,428.327 485.103,428.852 484.17,429.902C483.237,430.952 482.77,432.427 482.77,434.327Z" style="fill-rule:nonzero;"/>
                <path d="M327.12,501.527L327.12,465.027L338.62,465.027C341.053,465.027 343.162,465.477 344.945,466.377C346.728,467.277 348.12,468.535 349.12,470.152C350.12,471.768 350.62,473.677 350.62,475.877C350.62,478.31 350.02,480.435 348.82,482.252C347.62,484.068 346.003,485.36 343.97,486.127L351.12,501.527L344.27,501.527L337.87,487.027L333.32,487.027L333.32,501.527L327.12,501.527ZM333.32,481.527L338.62,481.527C340.387,481.527 341.77,481.043 342.77,480.077C343.77,479.11 344.27,477.777 344.27,476.077C344.27,474.377 343.762,473.027 342.745,472.027C341.728,471.027 340.353,470.527 338.62,470.527L333.32,470.527L333.32,481.527Z" style="fill-rule:nonzero;"/>
                <path d="M363.32,502.027C360.987,502.027 358.953,501.577 357.22,500.677C355.487,499.777 354.145,498.502 353.195,496.852C352.245,495.202 351.77,493.26 351.77,491.027L351.77,484.527C351.77,482.293 352.245,480.352 353.195,478.702C354.145,477.052 355.487,475.777 357.22,474.877C358.953,473.977 360.987,473.527 363.32,473.527C365.62,473.527 367.628,473.977 369.345,474.877C371.062,475.777 372.395,477.035 373.345,478.652C374.295,480.268 374.77,482.16 374.77,484.327L374.77,489.327L357.77,489.327L357.77,491.227C357.77,493.093 358.253,494.502 359.22,495.452C360.187,496.402 361.553,496.877 363.32,496.877C364.62,496.877 365.728,496.652 366.645,496.202C367.562,495.752 368.103,495.093 368.27,494.227L374.47,494.227C374.037,496.593 372.803,498.485 370.77,499.902C368.737,501.318 366.253,502.027 363.32,502.027ZM357.77,484.327L357.77,485.277L368.77,485.227L368.77,484.277C368.77,482.377 368.303,480.91 367.37,479.877C366.437,478.843 365.087,478.327 363.32,478.327C361.487,478.327 360.103,478.852 359.17,479.902C358.237,480.952 357.77,482.427 357.77,484.327Z" style="fill-rule:nonzero;"/>
                <path d="M387.12,501.977C383.853,501.977 381.27,501.235 379.37,499.752C377.47,498.268 376.52,496.26 376.52,493.727L382.67,493.727C382.67,494.793 383.062,495.61 383.845,496.177C384.628,496.743 385.72,497.027 387.12,497.027L389.32,497.027C390.82,497.027 391.978,496.743 392.795,496.177C393.612,495.61 394.02,494.793 394.02,493.727C394.02,492.727 393.737,491.985 393.17,491.502C392.603,491.018 391.737,490.693 390.57,490.527L383.72,489.627C381.52,489.327 379.828,488.477 378.645,487.077C377.462,485.677 376.87,483.86 376.87,481.627C376.87,479.027 377.737,477.035 379.47,475.652C381.203,474.268 383.703,473.577 386.97,473.577L389.27,473.577C392.337,473.577 394.803,474.277 396.67,475.677C398.537,477.077 399.503,478.943 399.57,481.277L393.37,481.277C393.337,480.41 392.953,479.718 392.22,479.202C391.487,478.685 390.503,478.427 389.27,478.427L386.97,478.427C385.637,478.427 384.62,478.702 383.92,479.252C383.22,479.802 382.87,480.543 382.87,481.477C382.87,482.31 383.128,482.927 383.645,483.327C384.162,483.727 384.92,483.977 385.92,484.077L392.37,484.977C394.903,485.277 396.812,486.168 398.095,487.652C399.378,489.135 400.02,491.127 400.02,493.627C400.02,496.293 399.112,498.352 397.295,499.802C395.478,501.252 392.82,501.977 389.32,501.977L387.12,501.977Z" style="fill-rule:nonzero;"/>
                <path d="M416.02,501.527C413.453,501.527 411.412,500.785 409.895,499.302C408.378,497.818 407.62,495.81 407.62,493.277L407.62,479.677L400.02,479.677L400.02,474.027L407.62,474.027L407.62,466.277L413.92,466.277L413.92,474.027L424.87,474.027L424.87,479.677L413.92,479.677L413.92,493.127C413.92,493.927 414.145,494.585 414.595,495.102C415.045,495.618 415.67,495.877 416.47,495.877L424.62,495.877L424.62,501.527L416.02,501.527Z" style="fill-rule:nonzero;"/>
                <path d="M435.22,502.027C432.42,502.027 430.212,501.235 428.595,499.652C426.978,498.068 426.17,495.993 426.17,493.427C426.17,490.76 427.087,488.635 428.92,487.052C430.753,485.468 433.27,484.677 436.47,484.677L443.17,484.677L443.17,482.727C443.17,479.96 441.553,478.577 438.32,478.577C436.853,478.577 435.687,478.86 434.82,479.427C433.953,479.993 433.47,480.793 433.37,481.827L427.37,481.827C427.503,479.36 428.545,477.36 430.495,475.827C432.445,474.293 435.07,473.527 438.37,473.527C441.87,473.527 444.587,474.343 446.52,475.977C448.453,477.61 449.42,479.91 449.42,482.877L449.42,501.527L443.32,501.527L443.32,496.377C443.087,498.143 442.253,499.527 440.82,500.527C439.387,501.527 437.52,502.027 435.22,502.027ZM437.22,496.927C439.053,496.927 440.503,496.477 441.57,495.577C442.637,494.677 443.17,493.477 443.17,491.977L443.17,488.727L436.77,488.727C435.403,488.727 434.32,489.11 433.52,489.877C432.72,490.643 432.32,491.627 432.32,492.827C432.32,494.06 432.745,495.052 433.595,495.802C434.445,496.552 435.653,496.927 437.22,496.927Z" style="fill-rule:nonzero;"/>
                <g transform="matrix(0.297076,0,0,0.297076,-589.758,-486.721)">
                    <path d="M3561.47,3158.27L3553.89,3158.27C3545.25,3158.27 3538.38,3155.77 3533.28,3150.78C3528.17,3145.79 3525.62,3139.03 3525.62,3130.5L3525.62,3084.72L3500.03,3084.72L3500.03,3065.7L3525.62,3065.7L3525.62,3039.61L3546.82,3039.61L3546.82,3065.7L3583.68,3065.7L3583.68,3084.72L3546.82,3084.72L3546.82,3129.99C3546.82,3132.69 3547.58,3134.9 3549.1,3136.64C3550.61,3138.38 3552.72,3139.25 3555.41,3139.25L3582.51,3139.25L3582.51,3291.57C3582.51,3302.9 3579.08,3311.85 3572.24,3318.41C3565.39,3324.98 3556.19,3328.26 3544.64,3328.26C3532.85,3328.26 3523.6,3324.98 3516.87,3318.41C3510.13,3311.85 3506.77,3302.9 3506.77,3291.57L3506.77,3234.01L3527.81,3234.01L3527.81,3291.4C3527.81,3297.23 3529.26,3301.78 3532.18,3305.03C3535.1,3308.29 3539.25,3309.91 3544.64,3309.91C3549.91,3309.91 3554.03,3308.29 3557.01,3305.03C3559.98,3301.78 3561.47,3297.23 3561.47,3291.4L3561.47,3158.27Z"/>
                </g>
                <path d="M478.12,501.527L478.12,474.027L484.22,474.027L484.22,479.377C484.553,477.577 485.378,476.152 486.695,475.102C488.012,474.052 489.72,473.527 491.82,473.527C494.62,473.527 496.803,474.427 498.37,476.227C499.937,478.027 500.72,480.543 500.72,483.777L500.72,486.377L494.47,486.377L494.47,484.077C494.47,482.41 494.037,481.135 493.17,480.252C492.303,479.368 491.07,478.927 489.47,478.927C487.803,478.927 486.537,479.427 485.67,480.427C484.803,481.427 484.37,482.843 484.37,484.677L484.37,501.527L478.12,501.527Z" style="fill-rule:nonzero;"/>
                <path d="M510.22,502.027C507.42,502.027 505.212,501.235 503.595,499.652C501.978,498.068 501.17,495.993 501.17,493.427C501.17,490.76 502.087,488.635 503.92,487.052C505.753,485.468 508.27,484.677 511.47,484.677L518.17,484.677L518.17,482.727C518.17,479.96 516.553,478.577 513.32,478.577C511.853,478.577 510.687,478.86 509.82,479.427C508.953,479.993 508.47,480.793 508.37,481.827L502.37,481.827C502.503,479.36 503.545,477.36 505.495,475.827C507.445,474.293 510.07,473.527 513.37,473.527C516.87,473.527 519.587,474.343 521.52,475.977C523.453,477.61 524.42,479.91 524.42,482.877L524.42,501.527L518.32,501.527L518.32,496.377C518.087,498.143 517.253,499.527 515.82,500.527C514.387,501.527 512.52,502.027 510.22,502.027ZM512.22,496.927C514.053,496.927 515.503,496.477 516.57,495.577C517.637,494.677 518.17,493.477 518.17,491.977L518.17,488.727L511.77,488.727C510.403,488.727 509.32,489.11 508.52,489.877C507.72,490.643 507.32,491.627 507.32,492.827C507.32,494.06 507.745,495.052 508.595,495.802C509.445,496.552 510.653,496.927 512.22,496.927Z" style="fill-rule:nonzero;"/>
                <path d="M541.02,501.527C538.453,501.527 536.412,500.785 534.895,499.302C533.378,497.818 532.62,495.81 532.62,493.277L532.62,479.677L525.02,479.677L525.02,474.027L532.62,474.027L532.62,466.277L538.92,466.277L538.92,474.027L549.87,474.027L549.87,479.677L538.92,479.677L538.92,493.127C538.92,493.927 539.145,494.585 539.595,495.102C540.045,495.618 540.67,495.877 541.47,495.877L549.62,495.877L549.62,501.527L541.02,501.527Z" style="fill-rule:nonzero;"/>
                <path d="M552.07,501.527L552.07,495.877L561.47,495.877L561.47,479.677L553.07,479.677L553.07,474.027L567.72,474.027L567.72,495.877L576.17,495.877L576.17,501.527L552.07,501.527ZM564.17,469.427C562.903,469.427 561.903,469.102 561.17,468.452C560.437,467.802 560.07,466.927 560.07,465.827C560.07,464.727 560.437,463.852 561.17,463.202C561.903,462.552 562.903,462.227 564.17,462.227C565.437,462.227 566.437,462.552 567.17,463.202C567.903,463.852 568.27,464.727 568.27,465.827C568.27,466.927 567.903,467.802 567.17,468.452C566.437,469.102 565.437,469.427 564.17,469.427Z" style="fill-rule:nonzero;"/>
                <path d="M588.27,501.977C584.737,501.977 581.937,500.985 579.87,499.002C577.803,497.018 576.77,494.343 576.77,490.977L576.77,484.577C576.77,481.177 577.803,478.493 579.87,476.527C581.937,474.56 584.737,473.577 588.27,473.577C591.803,473.577 594.603,474.56 596.67,476.527C598.737,478.493 599.77,481.177 599.77,484.577L599.77,490.977C599.77,494.343 598.737,497.018 596.67,499.002C594.603,500.985 591.803,501.977 588.27,501.977ZM588.27,496.527C589.937,496.527 591.228,496.068 592.145,495.152C593.062,494.235 593.52,492.91 593.52,491.177L593.52,484.377C593.52,482.643 593.062,481.318 592.145,480.402C591.228,479.485 589.937,479.027 588.27,479.027C586.603,479.027 585.312,479.485 584.395,480.402C583.478,481.318 583.02,482.643 583.02,484.377L583.02,491.177C583.02,492.91 583.478,494.235 584.395,495.152C585.312,496.068 586.603,496.527 588.27,496.527Z" style="fill-rule:nonzero;"/>
                <path d="M602.12,501.527L602.12,474.027L608.22,474.027L608.22,479.177C608.553,477.443 609.37,476.068 610.67,475.052C611.97,474.035 613.62,473.527 615.62,473.527C618.32,473.527 620.478,474.427 622.095,476.227C623.712,478.027 624.52,480.443 624.52,483.477L624.52,501.527L618.27,501.527L618.27,484.227C618.27,482.527 617.828,481.218 616.945,480.302C616.062,479.385 614.87,478.927 613.37,478.927C611.803,478.927 610.578,479.393 609.695,480.327C608.812,481.26 608.37,482.593 608.37,484.327L608.37,501.527L602.12,501.527Z" style="fill-rule:nonzero;"/>
            </g>
        </g>
    </g>
</svg>
